<svg
    xmlns="http://www.w3.org/2000/svg"
    xmlns:hyvector="https://www.hyvector.com/dtd"
    viewBox="0 0 540 128"
    >
  <title>hero</title>
  <g
      hyvector:grouptype="text"
      >
    <path
      d="M77.5121 83.1437c0 0.01886667-0.00943333 0.05663333-0.0283 0.1133-0.20766667 1.4726-0.96286667 2.2089-2.2656 2.2089-0.45313333 0-0.84963333-0.11326667-1.1895-0.3398-0.7552-0.49086667-1.1328-1.29326667-1.1328-2.4072l1.9258-14.8682h-12.999c-0.73633333 6.0228-1.4066 11.12046667-2.0108 15.293-0.26433333 1.52926667-1.0384 2.30333333-2.3222 2.3222-0.4154 0-0.78356667-0.10383333-1.1045-0.3115-0.793-0.50973333-1.1895-1.33103333-1.1895-2.4639 0.11326667-0.98173333 1.20833333-9.1946 3.2852-24.6386 1.28386667-9.49673333 1.9258-14.27343333 1.9258-14.3301 0-0.2832 0.11326667-0.6136 0.3398-0.9912 0.50973333-0.81186667 1.14223333-1.2178 1.8975-1.2178 0.35866667 0 0.6985 0.0944 1.0195 0.2832 0.73633333 0.43426667 1.1328 1.0762 1.1894 1.9258l-2.4355 19.5127c3.03973333-0.03773333 7.38216667-0.0566 13.0273-0.0566 0.1888-1.52933333 0.52866667-4.14426667 1.0196-7.8448 0.6608-4.88993333 1.17056667-8.76036667 1.5293-11.6113 0.03773333-0.2832 0.11323333-0.5664 0.2265-0.8496 0.4154-0.90626667 1.11396667-1.3594 2.0957-1.3594 0.35873333 0 0.70803333 0.0944 1.0479 0.2832 0.7552 0.43426667 1.16113333 1.0762 1.2178 1.9258l-2.4639 19.4561h7.1367c0.43426667 0 0.8402 0.0755 1.2178 0.2265 0.944 0.4154 1.416 1.1234 1.416 2.124 0 0.30213333-0.07553333 0.60423333-0.2266 0.9063-0.3776 0.77406667-1.1139 1.24606667-2.2089 1.416h-7.9014c-1.1706 9.10026667-1.8503 14.19793333-2.0391 15.293zM91.5873 76.7999c0-0.64193333 0.03776667-1.3216 0.1133-2.039 0.39646667-3.22853333 1.416-6.09833333 3.0586-8.6094 2.00126667-3.07746667 4.4085-4.6162 7.2217-4.6162 0.7552 0 1.48206667 0.0944 2.1806 0.2832 2.4922 0.71746667 3.7383 2.47333333 3.7383 5.2676 0 0.20766667-0.00943333 0.42476667-0.0283 0.6513-0.1888 2.52993333-1.3216 4.65396667-3.3984 6.3721-2.03906667 1.6992-4.40853333 2.5488-7.1084 2.5488-0.5098 0-1.01013333-0.0472-1.501-0.1416-0.0378 0.2832-0.0567 0.6797-0.0567 1.1895 0 1.09506667 0.18883333 1.94466667 0.5665 2.5488 0.50973333 0.77406667 1.55756667 1.2272 3.1435 1.3594 0.6986 0 1.38773333-0.07553333 2.0674-0.2266 1.18946667-0.2832 2.59603333-0.95343333 4.2197-2.0107 1.05733333-0.6986 1.8031-1.0479 2.2373-1.0479 0.24546667 0 0.50036667 0.07553333 0.7647 0.2266 0.60413333 0.35873333 0.9062 0.87793333 0.9062 1.5576 0 0.22653333-0.0472 0.47196667-0.1416 0.7363-0.50973333 1.2272-2.03903333 2.38833333-4.5879 3.4834-2.36 1.01953333-4.4368 1.5293-6.2304 1.5293-0.67973333 0-1.31223333-0.05663333-1.8975-0.1699-3.51173333-0.71746667-5.2676-3.68166667-5.2676-8.8926zM100.6781 65.9816c-1.71806667 1.15166667-3.068 3.34176667-4.0498 6.5703 0.472 0.11326667 0.92513333 0.1699 1.3594 0.1699 1.56706667 0 2.9359-0.48143333 4.1065-1.4443 1.30273333-1.05733333 1.9541-2.31286667 1.9541-3.7666 0-1.4538-0.46256667-2.19013333-1.3877-2.209-0.66086667 0.01886667-1.3217 0.24543333-1.9825 0.6797zM109.1459 82.5206l2.4072-18.1816c0.0378-0.321 0.085-0.6231 0.1416-0.9063 0.33986667-1.62366667 1.0762-2.4355 2.209-2.4355 0.20766667 0 0.41536667 0.01886667 0.6231 0.0566 0.86846667 0.20773333 1.3027 1.02903333 1.3027 2.4639 0 0.20766667-0.01886667 0.5664-0.0566 1.0762-0.01893333 0.3398-0.0284 0.6041-0.0284 0.7929 0.0378-0.07546667 0.085-0.15096667 0.1416-0.2265 1.39713333-2.47333333 3.389-3.71 5.9756-3.71 0.92513333 0 1.77476667 0.27376667 2.5489 0.8213 1.15166667 0.8496 1.7275 1.97296667 1.7275 3.3701 0 0.2266-0.00943333 0.7647-0.0283 1.6143-0.01886667 1.9258-0.0283 3.4551-0.0283 4.5879 0 3.85153333 0.11326667 6.11713333 0.3398 6.7968 0.05666667 0.15106667 0.1133 0.31156667 0.1699 0.4815 0.52866667 1.43486667 1.27443333 2.1523 2.2373 2.1523 0.16993333 0 0.35873333-0.01886667 0.5664-0.0566 0.5664-0.11326667 1.37826667-0.55696667 2.4356-1.3311 1.0384-0.73633333 1.86913333-1.1045 2.4922-1.1045 0.2454 0 0.4814 0.0661 0.708 0.1983 0.58526667 0.33986667 0.8779 0.89683333 0.8779 1.6709-0.11326667 0.92513333-0.90623333 1.94466667-2.3789 3.0586-1.737 1.17053333-3.48343333 1.7558-5.2393 1.7558-1.416 0-2.61486667-0.38703333-3.5966-1.1611-2.0202-1.62366667-3.0303-5.1826-3.0303-10.6768 0-0.39646667 0.00943333-1.03836667 0.0283-1.9257 0.0378-0.92513333 0.0567-1.69923333 0.0567-2.3223 0-2.0202-0.22656667-3.0586-0.6797-3.1152-0.07553333 0-0.16993333 0.01886667-0.2832 0.0566-1.0762 0.39646667-2.45446667 2.53936667-4.1348 6.4287-1.47266667 3.41733333-2.41666667 6.2588-2.832 8.5244l-0.0567 0.8213c-0.0566 0.67973333-0.2454 1.3028-0.5664 1.8692-0.54753333 0.9062-1.2272 1.3593-2.039 1.3593-0.2266 0-0.45316667-0.0472-0.6797-0.1416-0.8874-0.41533333-1.3311-1.3027-1.3311-2.6621zM131.9154 76.715c0-0.64193333 0.03776667-1.32163333 0.1133-2.0391 0.39653333-3.2474 1.41606667-6.12663333 3.0586-8.6377 2.00133333-3.0586 4.40856667-4.5879 7.2217-4.5879 1.2272 0 2.30336667 0.236 3.2285 0.708 0.3776-0.45313333 0.88736667-0.68913333 1.5293-0.708 1.24613333 0.01886667 1.88806667 0.82126667 1.9258 2.4072 0 0.05666667-1.0384 7.53323333-3.1152 22.4297 4.17246667-3.1152 6.81566667-5.13536667 7.9296-6.0605 0.6986-0.6042 1.4255-0.91573333 2.1807-0.9346 0.26433333 0 0.51923333 0.08496667 0.7647 0.2549 0.54746667 0.3776 0.8212 0.85903333 0.8212 1.4443-0.01886667 0.8874-0.53806667 1.76533333-1.5576 2.6338-1.888 1.58593333-5.5602 4.46516667-11.0166 8.6377l-1.3027 9.374c-0.321 2.1524-1.2367 3.795-2.7471 4.9278-1.2272 0.88733333-2.57713333 1.331-4.0498 1.331-1.737-0.01886667-3.27573333-0.67966667-4.6162-1.9824-1.28386667-1.30273333-1.9258-2.7565-1.9258-4.3613 0-1.58593333 0.35873333-2.8981 1.0762-3.9365 0.45313333-0.66086667 1.33106667-1.47273333 2.6338-2.4356l0.0566-0.0283c0.01886667-0.01886667 0.0755-0.06606667 0.1699-0.1416 1.3028-0.96293333 3.559-2.65273333 6.7686-5.0694l0.8213-5.4941c-1.265 0.8496-2.58663333 1.28383333-3.9649 1.3027-1.20833333 0-2.25616667-0.3115-3.1435-0.9345-1.90693333-1.39713333-2.8604-4.097-2.8604-8.0996zM141.9692 78.6407c0.26426667-0.3776 0.5852-1.38766667 0.9628-3.0302 0.77413333-3.3418 1.3311-6.7025 1.6709-10.0821-0.4342-0.22653333-0.87786667-0.34923333-1.331-0.3681-0.33986667 0-0.68916667 0.0472-1.0479 0.1416-1.75586667 0.49086667-3.2474 2.11456667-4.4746 4.8711-1.07613333 2.47326667-1.6142 4.956-1.6142 7.4482 0 0.26433333 0.00943333 0.52866667 0.0283 0.793 0.13213333 1.9824 0.7174 2.9736 1.7558 2.9736 0.52866667 0 1.1706-0.26433333 1.9258-0.793 0.8874-0.623 1.59543333-1.27436667 2.1241-1.9541zM139.6469 99.3712l0.4814-3.4551c-0.07546667 0.05666667-0.1604 0.12276667-0.2548 0.1983-1.8692 1.43486667-2.82266667 2.1712-2.8604 2.209-1.3594 1.01953333-2.04853333 1.9824-2.0674 2.8886 0 0.321 0.05663333 0.6231 0.1699 0.9063 0.321 0.83073333 0.91573333 1.2461 1.7842 1.2461 0.35873333 0 0.6797-0.05663333 0.9629-0.1699 0.92513333-0.39653333 1.51986667-1.67096667 1.7842-3.8233zM154.7983 54.1154h0.2832c1.05726667 0.03773333 2.0107 0.0566 2.8603 0.0566l1.2461-8.751c0.07553333-0.58526667 0.16993333-1.07613333 0.2832-1.4726 0.33986667-1.24613333 1.029-1.8692 2.0674-1.8692 0.20766667 0 0.41533333 0.0189 0.623 0.0567 0.86853333 0.20766667 1.3028 1.02893333 1.3028 2.4638 0 0.45313333-0.3776 3.6439-1.1328 9.5723h2.9736c0.50973333 0 0.9534 0.10383333 1.331 0.3115 0.66086667 0.39646667 0.9913 0.98176667 0.9913 1.7559 0 0.3398-0.08496667 0.66076667-0.2549 0.9629-0.43426667 0.7174-1.14226667 1.0761-2.124 1.0761h-3.5118c-1.47266667 11.32813333-2.209 17.68133333-2.209 19.0596 0 0.86846667 0.17936667 1.68033333 0.5381 2.4356 0.52866667 1.1328 1.22723333 1.6992 2.0957 1.6992 0.20773333 0 0.42486667-0.02833333 0.6514-0.085 0.5098-0.13213333 1.2367-0.56636667 2.1807-1.3027 0.92513333-0.73633333 1.6992-1.1045 2.3222-1.1045 0.26433333 0 0.51923333 0.05663333 0.7647 0.1699 0.67966667 0.33986667 1.0195 0.85906667 1.0195 1.5576-0.0566 0.9818-0.7835 2.00133333-2.1807 3.0586-1.6992 1.2272-3.50223333 1.8408-5.4091 1.8408-1.86913333-0.01886667-3.39843333-0.80236667-4.5879-2.3505-1.20833333-1.6426-1.8125-3.71-1.8125-6.2022 0-0.54753333 0.74576667-6.80633333 2.2373-18.7764h-2.8887c-1.30273333-0.11326667-1.9541-0.79293333-1.9541-2.039 0-0.33986667 0.05663333-0.6514 0.1699-0.9346 0.33986667-0.79293333 1.0479-1.1894 2.1241-1.1894zM173.3481 61.6769c0.6608 0.01886667 1.28383333 0.08493333 1.8691 0.1982 2.90753333 0.62306667 4.6917 2.8887 5.3525 6.7969 0.35873333-0.20766667 0.95346667-0.5947 1.7842-1.1611 1.1328-0.77413333 1.99186667-1.1612 2.5772-1.1612 0.2832 0 0.55696667 0.08496667 0.8213 0.2549 0.58526667 0.3776 0.8779 0.88736667 0.8779 1.5293-0.01886667 0.64193333-0.43423333 1.34993333-1.2461 2.124-1.15166667 1.05733333-2.6432 1.95416667-4.4746 2.6905-0.01886667 2.94526667-0.46256667 5.43743333-1.3311 7.4765-1.416 3.32293333-3.73826667 4.9844-6.9668 4.9844-1.15166667 0-2.30333333-0.36816667-3.455-1.1045-2.66213333-1.75586667-3.9932-4.9183-3.9932-9.4873 0-2.75653333 0.46256667-5.2676 1.3877-7.5332 1.45373333-3.56833333 3.71936667-5.43746667 6.7969-5.6074zM176.8881 73.6847c-0.73633333-0.01886667-1.4349-0.0944-2.0957-0.2266-2.4922-0.5286-4.09703333-1.8502-4.8145-3.9648-0.49086667 1.58593333-0.7363 3.31346667-0.7363 5.1826 0 0.90626667 0.08496667 1.7842 0.2549 2.6338 0.52866667 2.5866 1.68036667 3.8799 3.4551 3.8799 0.58526667 0 1.1139-0.17936667 1.5859-0.5381 1.37826667-1.05733333 2.1618-3.3796 2.3506-6.9668zM176.4633 69.8331h0.3965c-0.2832-2.5866-0.9629-3.88933333-2.0391-3.9082-0.0944 0-0.1888 0.00943333-0.2832 0.0283-0.41533333 0.15106667-0.623 0.4626-0.623 0.9346 0 0.4154 0.06606667 0.82133333 0.1982 1.2178 0.4154 1.15166667 1.19893333 1.7275 2.3506 1.7275zM183.1752 82.5206l2.4072-18.1816c0.0378-0.321 0.085-0.6231 0.1416-0.9063 0.33986667-1.62366667 1.0762-2.4355 2.209-2.4355 0.20766667 0 0.41536667 0.01886667 0.6231 0.0566 0.86846667 0.20773333 1.3027 1.02903333 1.3027 2.4639 0 0.20766667-0.01886667 0.5664-0.0566 1.0762-0.01893333 0.3398-0.0284 0.6041-0.0284 0.7929 0.0378-0.07546667 0.085-0.15096667 0.1416-0.2265 1.39713333-2.47333333 3.389-3.71 5.9756-3.71 0.92513333 0 1.77476667 0.27376667 2.5489 0.8213 1.15166667 0.8496 1.7275 1.97296667 1.7275 3.3701 0 0.2266-0.00943333 0.7647-0.0283 1.6143-0.01886667 1.9258-0.0283 3.4551-0.0283 4.5879 0 3.85153333 0.11326667 6.11713333 0.3398 6.7968 0.05666667 0.15106667 0.1133 0.31156667 0.1699 0.4815 0.52866667 1.43486667 1.27443333 2.1523 2.2373 2.1523 0.16993333 0 0.35873333-0.01886667 0.5664-0.0566 0.5664-0.11326667 1.37826667-0.55696667 2.4356-1.3311 1.0384-0.73633333 1.86913333-1.1045 2.4922-1.1045 0.2454 0 0.4814 0.0661 0.708 0.1983 0.58526667 0.33986667 0.8779 0.89683333 0.8779 1.6709-0.11326667 0.92513333-0.90623333 1.94466667-2.3789 3.0586-1.737 1.17053333-3.48343333 1.7558-5.2393 1.7558-1.416 0-2.61486667-0.38703333-3.5966-1.1611-2.0202-1.62366667-3.0303-5.1826-3.0303-10.6768 0-0.39646667 0.00943333-1.03836667 0.0283-1.9257 0.03773333-0.92513333 0.0566-1.69923333 0.0566-2.3223 0-2.0202-0.22653333-3.0586-0.6796-3.1152-0.07553333 0-0.16993333 0.01886667-0.2832 0.0566-1.0762 0.39646667-2.45446667 2.53936667-4.1348 6.4287-1.47266667 3.41733333-2.41666667 6.2588-2.832 8.5244l-0.0567 0.8213c-0.0566 0.67973333-0.2454 1.3028-0.5664 1.8692-0.54753333 0.9062-1.2272 1.3593-2.039 1.3593-0.2266 0-0.45316667-0.0472-0.6797-0.1416-0.8874-0.41533333-1.3311-1.3027-1.3311-2.6621zM205.9447 76.715c0-0.64193333 0.03776667-1.32163333 0.1133-2.0391 0.39646667-3.2474 1.416-6.12663333 3.0586-8.6377 2.00133333-3.0586 4.40856667-4.5879 7.2217-4.5879 1.2272 0 2.30336667 0.236 3.2285 0.708 0.3776-0.45313333 0.88736667-0.68913333 1.5293-0.708 1.24606667 0.01886667 1.888 0.82126667 1.9258 2.4072 0 0.05666667-1.0384 7.53323333-3.1152 22.4297 4.17246667-3.1152 6.81566667-5.13536667 7.9296-6.0605 0.6986-0.6042 1.4255-0.91573333 2.1807-0.9346 0.26433333 0 0.51923333 0.08496667 0.7647 0.2549 0.54746667 0.3776 0.8212 0.85903333 0.8212 1.4443-0.01886667 0.8874-0.53806667 1.76533333-1.5576 2.6338-1.888 1.58593333-5.5602 4.46516667-11.0166 8.6377l-1.3027 9.374c-0.321 2.1524-1.2367 3.795-2.7471 4.9278-1.2272 0.88733333-2.57713333 1.331-4.0498 1.331-1.737-0.01886667-3.27573333-0.67966667-4.6162-1.9824-1.28386667-1.30273333-1.9258-2.7565-1.9258-4.3613 0-1.58593333 0.35873333-2.8981 1.0762-3.9365 0.45313333-0.66086667 1.33106667-1.47273333 2.6338-2.4356l0.0566-0.0283c0.01886667-0.01886667 0.0755-0.06606667 0.1699-0.1416 1.30273333-0.96293333 3.55893333-2.65273333 6.7686-5.0694l0.8213-5.4941c-1.265 0.8496-2.58663333 1.28383333-3.9649 1.3027-1.20833333 0-2.25616667-0.3115-3.1435-0.9345-1.90693333-1.39713333-2.8604-4.097-2.8604-8.0996zM215.9985 78.6407c0.26426667-0.3776 0.5852-1.38766667 0.9628-3.0302 0.77413333-3.3418 1.3311-6.7025 1.6709-10.0821-0.4342-0.22653333-0.87786667-0.34923333-1.331-0.3681-0.33986667 0-0.68916667 0.0472-1.0479 0.1416-1.75586667 0.49086667-3.2474 2.11456667-4.4746 4.8711-1.07613333 2.47326667-1.6142 4.956-1.6142 7.4482 0 0.26433333 0.00943333 0.52866667 0.0283 0.793 0.13213333 1.9824 0.7174 2.9736 1.7558 2.9736 0.52866667 0 1.1706-0.26433333 1.9258-0.793 0.8874-0.623 1.59543333-1.27436667 2.1241-1.9541zM213.6762 99.3712l0.4814-3.4551c-0.07553333 0.05666667-0.1605 0.12276667-0.2549 0.1983-1.86913333 1.43486667-2.82256667 2.1712-2.8603 2.209-1.3594 1.01953333-2.04853333 1.9824-2.0674 2.8886 0 0.321 0.05663333 0.6231 0.1699 0.9063 0.321 0.83073333 0.91573333 1.2461 1.7842 1.2461 0.35873333 0 0.6797-0.05663333 0.9629-0.1699 0.92513333-0.39653333 1.51986667-1.67096667 1.7842-3.8233z"
      hyvector:transform="scale(1)"
      hyvector:d="M77.5121 83.1437c0 0.0188666666667-0.0094333333333 0.0566333333333-0.0283 0.1133-0.2076666666667 1.4726-0.9628666666667 2.2089-2.2656 2.2089-0.4531333333333 0-0.8496333333333-0.1132666666667-1.1895-0.3398-0.7552-0.4908666666667-1.1328-1.293266666667-1.1328-2.4072l1.9258-14.8682h-12.999c-0.7363333333333 6.0228-1.4066 11.12046666667-2.0108 15.293-0.2643333333333 1.529266666667-1.0384 2.303333333333-2.3222 2.3222-0.4154 0-0.7835666666667-0.1038333333333-1.1045-0.3115-0.793-0.5097333333333-1.1895-1.331033333333-1.1895-2.4639 0.1132666666667-0.9817333333333 1.208333333333-9.1946 3.2852-24.6386 1.283866666667-9.496733333333 1.9258-14.27343333333 1.9258-14.3301 0-0.2832 0.1132666666667-0.6136 0.3398-0.9912 0.5097333333333-0.8118666666667 1.142233333333-1.2178 1.8975-1.2178 0.3586666666667 0 0.6985 0.0944 1.0195 0.2832 0.7363333333333 0.4342666666667 1.1328 1.0762 1.1894 1.9258l-2.4355 19.5127c3.039733333333-0.0377333333333 7.382166666667-0.0566 13.0273-0.0566 0.1888-1.529333333333 0.5286666666667-4.144266666667 1.0196-7.8448 0.6608-4.889933333333 1.170566666667-8.760366666667 1.5293-11.6113 0.0377333333333-0.2832 0.1132333333333-0.5664 0.2265-0.8496 0.4154-0.9062666666667 1.113966666667-1.3594 2.0957-1.3594 0.3587333333333 0 0.7080333333333 0.0944 1.0479 0.2832 0.7552 0.4342666666667 1.161133333333 1.0762 1.2178 1.9258l-2.4639 19.4561h7.1367c0.4342666666667 0 0.8402 0.0755 1.2178 0.2265 0.944 0.4154 1.416 1.1234 1.416 2.124 0 0.3021333333333-0.0755333333333 0.6042333333333-0.2266 0.9063-0.3776 0.7740666666667-1.1139 1.246066666667-2.2089 1.416h-7.9014c-1.1706 9.100266666667-1.8503 14.19793333333-2.0391 15.293zM91.5873 76.7999c0-0.6419333333333 0.0377666666667-1.3216 0.1133-2.039 0.3964666666667-3.228533333333 1.416-6.098333333333 3.0586-8.6094 2.001266666667-3.077466666667 4.4085-4.6162 7.2217-4.6162 0.7552 0 1.482066666667 0.0944 2.1806 0.2832 2.4922 0.7174666666667 3.7383 2.473333333333 3.7383 5.2676 0 0.2076666666667-0.0094333333333 0.4247666666667-0.0283 0.6513-0.1888 2.529933333333-1.3216 4.653966666667-3.3984 6.3721-2.039066666667 1.6992-4.408533333333 2.5488-7.1084 2.5488-0.5098 0-1.010133333333-0.0472-1.501-0.1416-0.0378 0.2832-0.0567 0.6797-0.0567 1.1895 0 1.095066666667 0.1888333333333 1.944666666667 0.5665 2.5488 0.5097333333333 0.7740666666667 1.557566666667 1.2272 3.1435 1.3594 0.6986 0 1.387733333333-0.0755333333333 2.0674-0.2266 1.189466666667-0.2832 2.596033333333-0.9534333333333 4.2197-2.0107 1.057333333333-0.6986 1.8031-1.0479 2.2373-1.0479 0.2454666666667 0 0.5003666666667 0.0755333333333 0.7647 0.2266 0.6041333333333 0.3587333333333 0.9062 0.8779333333333 0.9062 1.5576 0 0.2265333333333-0.0472 0.4719666666667-0.1416 0.7363-0.5097333333333 1.2272-2.039033333333 2.388333333333-4.5879 3.4834-2.36 1.019533333333-4.4368 1.5293-6.2304 1.5293-0.6797333333333 0-1.312233333333-0.0566333333333-1.8975-0.1699-3.511733333333-0.7174666666667-5.2676-3.681666666667-5.2676-8.8926zM100.6781 65.9816c-1.718066666667 1.151666666667-3.068 3.341766666667-4.0498 6.5703 0.472 0.1132666666667 0.9251333333333 0.1699 1.3594 0.1699 1.567066666667 0 2.9359-0.4814333333333 4.1065-1.4443 1.302733333333-1.057333333333 1.9541-2.312866666667 1.9541-3.7666 0-1.4538-0.4625666666667-2.190133333333-1.3877-2.209-0.6608666666667 0.0188666666667-1.3217 0.2454333333333-1.9825 0.6797zM109.1459 82.5206l2.4072-18.1816c0.0378-0.321 0.085-0.6231 0.1416-0.9063 0.3398666666667-1.623666666667 1.0762-2.4355 2.209-2.4355 0.2076666666667 0 0.4153666666667 0.0188666666667 0.6231 0.0566 0.8684666666667 0.2077333333333 1.3027 1.029033333333 1.3027 2.4639 0 0.2076666666667-0.0188666666667 0.5664-0.0566 1.0762-0.0189333333333 0.3398-0.0284 0.6041-0.0284 0.7929 0.0378-0.0754666666667 0.085-0.1509666666667 0.1416-0.2265 1.397133333333-2.473333333333 3.389-3.71 5.9756-3.71 0.9251333333333 0 1.774766666667 0.2737666666667 2.5489 0.8213 1.151666666667 0.8496 1.7275 1.972966666667 1.7275 3.3701 0 0.2266-0.0094333333333 0.7647-0.0283 1.6143-0.0188666666667 1.9258-0.0283 3.4551-0.0283 4.5879 0 3.851533333333 0.1132666666667 6.117133333333 0.3398 6.7968 0.0566666666667 0.1510666666667 0.1133 0.3115666666667 0.1699 0.4815 0.5286666666667 1.434866666667 1.274433333333 2.1523 2.2373 2.1523 0.1699333333333 0 0.3587333333333-0.0188666666667 0.5664-0.0566 0.5664-0.1132666666667 1.378266666667-0.5569666666667 2.4356-1.3311 1.0384-0.7363333333333 1.869133333333-1.1045 2.4922-1.1045 0.2454 0 0.4814 0.0661 0.708 0.1983 0.5852666666667 0.3398666666667 0.8779 0.8968333333333 0.8779 1.6709-0.1132666666667 0.9251333333333-0.9062333333333 1.944666666667-2.3789 3.0586-1.737 1.170533333333-3.483433333333 1.7558-5.2393 1.7558-1.416 0-2.614866666667-0.3870333333333-3.5966-1.1611-2.0202-1.623666666667-3.0303-5.1826-3.0303-10.6768 0-0.3964666666667 0.0094333333333-1.038366666667 0.0283-1.9257 0.0378-0.9251333333333 0.0567-1.699233333333 0.0567-2.3223 0-2.0202-0.2265666666667-3.0586-0.6797-3.1152-0.0755333333333 0-0.1699333333333 0.0188666666667-0.2832 0.0566-1.0762 0.3964666666667-2.454466666667 2.539366666667-4.1348 6.4287-1.472666666667 3.417333333333-2.416666666667 6.2588-2.832 8.5244l-0.0567 0.8213c-0.0566 0.6797333333333-0.2454 1.3028-0.5664 1.8692-0.5475333333333 0.9062-1.2272 1.3593-2.039 1.3593-0.2266 0-0.4531666666667-0.0472-0.6797-0.1416-0.8874-0.4153333333333-1.3311-1.3027-1.3311-2.6621zM131.9154 76.715c0-0.6419333333333 0.0377666666667-1.321633333333 0.1133-2.0391 0.3965333333333-3.2474 1.416066666667-6.126633333333 3.0586-8.6377 2.001333333333-3.0586 4.408566666667-4.5879 7.2217-4.5879 1.2272 0 2.303366666667 0.236 3.2285 0.708 0.3776-0.4531333333333 0.8873666666667-0.6891333333333 1.5293-0.708 1.246133333333 0.0188666666667 1.888066666667 0.8212666666667 1.9258 2.4072 0 0.0566666666667-1.0384 7.533233333333-3.1152 22.4297 4.172466666667-3.1152 6.815666666667-5.135366666667 7.9296-6.0605 0.6986-0.6042 1.4255-0.9157333333333 2.1807-0.9346 0.2643333333334 0 0.5192333333333 0.0849666666667 0.7647 0.2549 0.5474666666667 0.3776 0.8212 0.8590333333333 0.8212 1.4443-0.0188666666667 0.8874-0.5380666666667 1.765333333333-1.5576 2.6338-1.888 1.585933333333-5.5602 4.465166666667-11.0166 8.6377l-1.3027 9.374c-0.321 2.1524-1.2367 3.795-2.7471 4.9278-1.2272 0.8873333333333-2.577133333333 1.331-4.0498 1.331-1.737-0.0188666666667-3.275733333333-0.6796666666667-4.6162-1.9824-1.283866666667-1.302733333333-1.9258-2.7565-1.9258-4.3613 0-1.585933333333 0.3587333333333-2.8981 1.0762-3.9365 0.4531333333333-0.6608666666667 1.331066666667-1.472733333333 2.6338-2.4356l0.0566-0.0283c0.0188666666667-0.0188666666667 0.0755-0.0660666666667 0.1699-0.1416 1.3028-0.9629333333333 3.559-2.652733333333 6.7686-5.0694l0.8213-5.4941c-1.265 0.8496-2.586633333333 1.283833333333-3.9649 1.3027-1.208333333333 0-2.256166666667-0.3115-3.1435-0.9345-1.906933333333-1.397133333333-2.8604-4.097-2.8604-8.0996zM141.9692 78.6407c0.2642666666667-0.3776 0.5852-1.387666666667 0.9628-3.0302 0.7741333333333-3.3418 1.3311-6.7025 1.6709-10.0821-0.4342-0.2265333333333-0.8778666666667-0.3492333333333-1.331-0.3681-0.3398666666667 0-0.6891666666667 0.0472-1.0479 0.1416-1.755866666667 0.4908666666667-3.2474 2.114566666667-4.4746 4.8711-1.076133333333 2.473266666667-1.6142 4.956-1.6142 7.4482 0 0.2643333333333 0.0094333333333 0.5286666666667 0.0283 0.793 0.1321333333333 1.9824 0.7174 2.9736 1.7558 2.9736 0.5286666666667 0 1.1706-0.2643333333333 1.9258-0.793 0.8874-0.623 1.595433333333-1.274366666667 2.1241-1.9541zM139.6469 99.3712l0.4814-3.4551c-0.0754666666667 0.0566666666667-0.1604 0.1227666666667-0.2548 0.1983-1.8692 1.434866666667-2.822666666667 2.1712-2.8604 2.209-1.3594 1.019533333333-2.048533333333 1.9824-2.0674 2.8886 0 0.321 0.0566333333333 0.6231 0.1699 0.9063 0.321 0.8307333333333 0.9157333333333 1.2461 1.7842 1.2461 0.3587333333333 0 0.6797-0.0566333333333 0.9629-0.1699 0.9251333333333-0.3965333333333 1.519866666667-1.670966666667 1.7842-3.8233zM154.7983 54.1154h0.2832c1.057266666667 0.0377333333333 2.0107 0.0566 2.8603 0.0566l1.2461-8.751c0.0755333333333-0.5852666666667 0.1699333333333-1.076133333333 0.2832-1.4726 0.3398666666667-1.246133333333 1.029-1.8692 2.0674-1.8692 0.2076666666667 0 0.4153333333333 0.0189 0.623 0.0567 0.8685333333333 0.2076666666667 1.3028 1.028933333333 1.3028 2.4638 0 0.4531333333333-0.3776 3.6439-1.1328 9.5723h2.9736c0.5097333333333 0 0.9534 0.1038333333333 1.331 0.3115 0.6608666666667 0.3964666666667 0.9913 0.9817666666667 0.9913 1.7559 0 0.3398-0.0849666666667 0.6607666666667-0.2549 0.9629-0.4342666666667 0.7174-1.142266666667 1.0761-2.124 1.0761h-3.5118c-1.472666666667 11.32813333333-2.209 17.68133333333-2.209 19.0596 0 0.8684666666667 0.1793666666667 1.680333333333 0.5381 2.4356 0.5286666666667 1.1328 1.227233333333 1.6992 2.0957 1.6992 0.2077333333334 0 0.4248666666667-0.0283333333333 0.6514-0.085 0.5098-0.1321333333333 1.2367-0.5663666666667 2.1807-1.3027 0.9251333333333-0.7363333333333 1.6992-1.1045 2.3222-1.1045 0.2643333333333 0 0.5192333333333 0.0566333333333 0.7647 0.1699 0.6796666666667 0.3398666666667 1.0195 0.8590666666667 1.0195 1.5576-0.0566 0.9818-0.7835 2.001333333333-2.1807 3.0586-1.6992 1.2272-3.502233333333 1.8408-5.4091 1.8408-1.869133333333-0.0188666666667-3.398433333333-0.8023666666667-4.5879-2.3505-1.208333333333-1.6426-1.8125-3.71-1.8125-6.2022 0-0.5475333333333 0.7457666666667-6.806333333333 2.2373-18.7764h-2.8887c-1.302733333333-0.1132666666667-1.9541-0.7929333333333-1.9541-2.039 0-0.3398666666667 0.0566333333333-0.6514 0.1699-0.9346 0.3398666666667-0.7929333333333 1.0479-1.1894 2.1241-1.1894zM173.3481 61.6769c0.6608 0.0188666666667 1.283833333333 0.0849333333333 1.8691 0.1982 2.907533333333 0.6230666666667 4.6917 2.8887 5.3525 6.7969 0.3587333333334-0.2076666666667 0.9534666666667-0.5947 1.7842-1.1611 1.1328-0.7741333333333 1.991866666667-1.1612 2.5772-1.1612 0.2832 0 0.5569666666667 0.0849666666667 0.8213 0.2549 0.5852666666667 0.3776 0.8779 0.8873666666667 0.8779 1.5293-0.0188666666667 0.6419333333333-0.4342333333333 1.349933333333-1.2461 2.124-1.151666666667 1.057333333333-2.6432 1.954166666667-4.4746 2.6905-0.0188666666667 2.945266666667-0.4625666666666 5.437433333333-1.3311 7.4765-1.416 3.322933333333-3.738266666667 4.9844-6.9668 4.9844-1.151666666667 0-2.303333333333-0.3681666666667-3.455-1.1045-2.662133333333-1.755866666667-3.9932-4.9183-3.9932-9.4873 0-2.756533333333 0.4625666666666-5.2676 1.3877-7.5332 1.453733333333-3.568333333333 3.719366666667-5.437466666667 6.7969-5.6074zM176.8881 73.6847c-0.7363333333333-0.0188666666667-1.4349-0.0944-2.0957-0.2266-2.4922-0.5286-4.097033333333-1.8502-4.8145-3.9648-0.4908666666667 1.585933333333-0.7363 3.313466666667-0.7363 5.1826 0 0.9062666666667 0.0849666666666 1.7842 0.2549 2.6338 0.5286666666667 2.5866 1.680366666667 3.8799 3.4551 3.8799 0.5852666666667 0 1.1139-0.1793666666667 1.5859-0.5381 1.378266666667-1.057333333333 2.1618-3.3796 2.3506-6.9668zM176.4633 69.8331h0.3965c-0.2832-2.5866-0.9629-3.889333333333-2.0391-3.9082-0.0944 0-0.1888 0.0094333333333-0.2832 0.0283-0.4153333333333 0.1510666666667-0.623 0.4626-0.623 0.9346 0 0.4154 0.0660666666667 0.8213333333333 0.1982 1.2178 0.4154 1.151666666667 1.198933333333 1.7275 2.3506 1.7275zM183.1752 82.5206l2.4072-18.1816c0.0378-0.321 0.085-0.6231 0.1416-0.9063 0.3398666666667-1.623666666667 1.0762-2.4355 2.209-2.4355 0.2076666666667 0 0.4153666666666 0.0188666666667 0.6231 0.0566 0.8684666666667 0.2077333333333 1.3027 1.029033333333 1.3027 2.4639 0 0.2076666666667-0.0188666666667 0.5664-0.0566 1.0762-0.0189333333333 0.3398-0.0284 0.6041-0.0284 0.7929 0.0378-0.0754666666667 0.085-0.1509666666667 0.1416-0.2265 1.397133333333-2.473333333333 3.389-3.71 5.9756-3.71 0.9251333333333 0 1.774766666667 0.2737666666667 2.5489 0.8213 1.151666666667 0.8496 1.7275 1.972966666667 1.7275 3.3701 0 0.2266-0.0094333333333 0.7647-0.0283 1.6143-0.0188666666667 1.9258-0.0283 3.4551-0.0283 4.5879 0 3.851533333333 0.1132666666667 6.117133333333 0.3398 6.7968 0.0566666666667 0.1510666666667 0.1133 0.3115666666667 0.1699 0.4815 0.5286666666667 1.434866666667 1.274433333333 2.1523 2.2373 2.1523 0.1699333333333 0 0.3587333333333-0.0188666666667 0.5664-0.0566 0.5664-0.1132666666667 1.378266666667-0.5569666666667 2.4356-1.3311 1.0384-0.7363333333333 1.869133333333-1.1045 2.4922-1.1045 0.2454 0 0.4814 0.0661 0.708 0.1983 0.5852666666667 0.3398666666667 0.8779 0.8968333333333 0.8779 1.6709-0.1132666666667 0.9251333333333-0.9062333333333 1.944666666667-2.3789 3.0586-1.737 1.170533333333-3.483433333333 1.7558-5.2393 1.7558-1.416 0-2.614866666667-0.3870333333333-3.5966-1.1611-2.0202-1.623666666667-3.0303-5.1826-3.0303-10.6768 0-0.3964666666667 0.0094333333333-1.038366666667 0.0283-1.9257 0.0377333333333-0.9251333333333 0.0566-1.699233333333 0.0566-2.3223 0-2.0202-0.2265333333333-3.0586-0.6796-3.1152-0.0755333333333 0-0.1699333333333 0.0188666666667-0.2832 0.0566-1.0762 0.3964666666667-2.454466666667 2.539366666667-4.1348 6.4287-1.472666666667 3.417333333333-2.416666666667 6.2588-2.832 8.5244l-0.0567 0.8213c-0.0566 0.6797333333333-0.2454 1.3028-0.5664 1.8692-0.5475333333333 0.9062-1.2272 1.3593-2.039 1.3593-0.2266 0-0.4531666666666-0.0472-0.6797-0.1416-0.8874-0.4153333333333-1.3311-1.3027-1.3311-2.6621zM205.9447 76.715c0-0.6419333333333 0.0377666666667-1.321633333333 0.1133-2.0391 0.3964666666667-3.2474 1.416-6.126633333333 3.0586-8.6377 2.001333333333-3.0586 4.408566666667-4.5879 7.2217-4.5879 1.2272 0 2.303366666667 0.236 3.2285 0.708 0.3776-0.4531333333333 0.8873666666667-0.6891333333333 1.5293-0.708 1.246066666667 0.0188666666667 1.888 0.8212666666667 1.9258 2.4072 0 0.0566666666667-1.0384 7.533233333333-3.1152 22.4297 4.172466666667-3.1152 6.815666666667-5.135366666667 7.9296-6.0605 0.6986-0.6042 1.4255-0.9157333333333 2.1807-0.9346 0.2643333333333 0 0.5192333333333 0.0849666666667 0.7647 0.2549 0.5474666666667 0.3776 0.8212 0.8590333333333 0.8212 1.4443-0.0188666666667 0.8874-0.5380666666667 1.765333333333-1.5576 2.6338-1.888 1.585933333333-5.5602 4.465166666667-11.0166 8.6377l-1.3027 9.374c-0.321 2.1524-1.2367 3.795-2.7471 4.9278-1.2272 0.8873333333333-2.577133333333 1.331-4.0498 1.331-1.737-0.0188666666667-3.275733333333-0.6796666666667-4.6162-1.9824-1.283866666667-1.302733333333-1.9258-2.7565-1.9258-4.3613 0-1.585933333333 0.3587333333333-2.8981 1.0762-3.9365 0.4531333333333-0.6608666666667 1.331066666667-1.472733333333 2.6338-2.4356l0.0566-0.0283c0.0188666666667-0.0188666666667 0.0755-0.0660666666667 0.1699-0.1416 1.302733333333-0.9629333333333 3.558933333333-2.652733333333 6.7686-5.0694l0.8213-5.4941c-1.265 0.8496-2.586633333333 1.283833333333-3.9649 1.3027-1.208333333333 0-2.256166666667-0.3115-3.1435-0.9345-1.906933333333-1.397133333333-2.8604-4.097-2.8604-8.0996zM215.9985 78.6407c0.2642666666667-0.3776 0.5852-1.387666666667 0.9628-3.0302 0.7741333333334-3.3418 1.3311-6.7025 1.6709-10.0821-0.4342-0.2265333333333-0.8778666666667-0.3492333333333-1.331-0.3681-0.3398666666667 0-0.6891666666667 0.0472-1.0479 0.1416-1.755866666667 0.4908666666667-3.2474 2.114566666667-4.4746 4.8711-1.076133333333 2.473266666667-1.6142 4.956-1.6142 7.4482 0 0.2643333333333 0.0094333333334 0.5286666666667 0.0283 0.793 0.1321333333333 1.9824 0.7174 2.9736 1.7558 2.9736 0.5286666666667 0 1.1706-0.2643333333333 1.9258-0.793 0.8874-0.623 1.595433333333-1.274366666667 2.1241-1.9541zM213.6762 99.3712l0.4814-3.4551c-0.0755333333333 0.0566666666667-0.1605 0.1227666666667-0.2549 0.1983-1.869133333333 1.434866666667-2.822566666667 2.1712-2.8603 2.209-1.3594 1.019533333333-2.048533333333 1.9824-2.0674 2.8886 0 0.321 0.0566333333333 0.6231 0.1699 0.9063 0.321 0.8307333333333 0.9157333333333 1.2461 1.7842 1.2461 0.3587333333334 0 0.6797-0.0566333333333 0.9629-0.1699 0.9251333333333-0.3965333333333 1.519866666667-1.670966666667 1.7842-3.8233z"
      hyvector:nodetypes="32c22c6c36c27c10c8c31c14c7c6c36c27c10c8c"
      fill="#67666d"
      />
    <hyvector:text
        xmlns="http://www.w3.org/1999/xhtml"
        style="font-weight: 400; font-style: normal; text-decoration: none; font-family: Roboto; font-size:12px;"
        transform="translate(53.49649783, 85.46593946)"
        >
      <tspan
          xmlns="http://www.w3.org/2000/svg"
          style="white-space: pre; font-weight: 300; font-style: normal; text-decoration: none; font-size: 58px; font-family: Vibur; fill: rgb(103, 102, 109);"
          >Hengtong</tspan>
    </hyvector:text>
  </g>
  <g
      hyvector:grouptype="text"
      >
    <path
      d="M365.4171 50.6822c0 0.92506667 0.21713333 1.75576667 0.6514 2.4921 1.1894 2.05793333 3.75706667 3.0869 7.703 3.0869 0.30206667-1.6048 0.4531-3.0208 0.4531-4.248 0-0.8496-0.1227-1.652-0.3681-2.4072-0.67973333-1.9824-1.9919-2.9736-3.9365-2.9736-0.944 0-1.80303333 0.22656667-2.5771 0.6797-1.28386667 0.77406667-1.9258 1.89743333-1.9258 3.3701zM337.7202 42.4977c0.3776 0 0.7363 0.0944 1.0761 0.2832 0.7552 0.4342 1.1517 1.0761 1.1895 1.9257-0.793 6.19266667-1.4066 11.05426667-1.8408 14.5848-1.0762 8.6282-1.6143 13.51813333-1.6143 14.6698 0 4.7766 1.2272 7.17436667 3.6816 7.1933 2.03906667 0 4.0498-0.45313333 6.0322-1.3594-0.6986-2.79426667-1.0479-5.4941-1.0479-8.0995 0-2.34113333 0.1416-4.41793333 0.4248-6.2304 1.00066667-6.2304 3.63443333-9.3456 7.9013-9.3456 1.73693333 0 3.20956667 0.5192 4.4179 1.5576 1.6048 1.39713333 2.4072 3.36066667 2.4072 5.8906 0 0.6608-0.0283 1.33103333-0.0849 2.0107-0.39653333 4.28573333-1.92583333 8.32603333-4.5879 12.1209-1.26493333 1.81246667-2.3694 3.0208-3.3134 3.625 0.151 0.49086667 0.67963333 0.7363 1.5859 0.7363 4.09693333-0.01886667 7.9107-2.25613333 11.4413-6.7118 2.983-3.79486667 5.42796667-8.6659 7.3349-14.6131-3.4362-0.15106667-6.1927-1.05733333-8.2695-2.7188-2.4166-1.9446-3.6249-4.635-3.6249-8.0712 0.01886667-2.36 0.96286667-4.36126667 2.832-6.0038 1.64253333-1.39713333 3.47386667-2.0957 5.494-2.0957 2.62433333 0 4.81443333 0.8496 6.5703 2.5488 1.9824 1.94466667 2.9736 4.53123333 2.9736 7.7597 0 0.73633333-0.0661 1.92576667-0.1983 3.5683 0.4154-0.0944 0.83076667-0.2171 1.2461-0.3681 1.01953333-0.33986667 2.2845-0.9818 3.7949-1.9258 1.07613333-0.67966667 1.9635-1.0195 2.6621-1.0195 0.30206667 0 0.58526667 0.0755 0.8496 0.2265 0.7174 0.4154 1.0761 1.0479 1.0761 1.8975-0.01886667 1.15166667-0.9534 2.27503333-2.8036 3.3701-2.19013333 1.2838-4.81446667 2.1334-7.873 2.5488-1.71806667 6.4758-4.21966667 11.96043333-7.5048 16.4539-4.72 6.45693333-10.35566667 9.6854-16.907 9.6854-0.15106667 0-0.321-0.00943333-0.5098-0.0283-1.77473333-0.1322-3.2757-0.89683333-4.5029-2.2939-2.6998 1.416-5.6073 2.124-8.7225 2.124-1.6992 0-3.12463333-0.50976667-4.2763-1.5293-2.1712-1.9258-3.2568-5.4186-3.2568-10.4784 0-3.43613333 0.46253333-7.92013333 1.3876-13.452 0.8874-5.39966667 1.4255-9.204 1.6143-11.413-1.86913333 1.18946667-3.35123333 2.1146-4.4463 2.7754-1.8502 1.1328-2.94523333 1.6992-3.2851 1.6992-0.41533333 0-0.82123333-0.11326667-1.2177-0.3398-0.73633333-0.472-1.1045-1.1328-1.1045-1.9824 0.01886667-0.793 0.47196667-1.501 1.3593-2.124 0.0944-0.07553333 0.31153333-0.2266 0.6514-0.4532 6.40033333-4.399 10.06306667-6.5985 10.9882-6.5985zM350.2376 76.8498c0.60413333-0.472 1.2366-1.15166667 1.8974-2.039 2.209-3.00193333 3.3135-6.49473333 3.3135-10.4784 0-0.16993333-0.00946667-0.33986667-0.0284-0.5098-0.0944-1.54813333-0.81183333-2.3222-2.1523-2.3222-1.0006 0.01886667-1.8313 0.944-2.4921 2.7754-0.71746667 2.1334-1.0762 4.73883333-1.0762 7.8163 0 1.15166667 0.17936667 2.73756667 0.5381 4.7577zM379.8037 77.8693c0-0.64186667 0.03773333-1.32153333 0.1132-2.039 0.39653333-3.22846667 1.41606667-6.09823333 3.0586-8.6093 2.00126667-3.0774 4.40846667-4.6161 7.2216-4.6161 0.7552 0 1.48206667 0.0944 2.1806 0.2832 2.4922 0.7174 3.7383 2.47323333 3.7383 5.2675 0 0.20766667-0.00946667 0.4248-0.0284 0.6514-0.1888 2.52986667-1.3216 4.65383333-3.3984 6.3719-2.039 1.6992-4.40843333 2.5488-7.1083 2.5488-0.50973333 0-1.01003333-0.0472-1.5009-0.1416-0.0378 0.2832-0.0567 0.6797-0.0567 1.1895 0 1.095 0.1888 1.9446 0.5664 2.5488 0.5098 0.77406667 1.55763333 1.22716667 3.1435 1.3593 0.6986 0 1.38773333-0.0755 2.0674-0.2265 1.18946667-0.2832 2.59603333-0.95343333 4.2197-2.0107 1.05726667-0.6986 1.80303333-1.0479 2.2373-1.0479 0.2454 0 0.50026667 0.07553333 0.7646 0.2266 0.60413333 0.35873333 0.9062 0.87793333 0.9062 1.5576 0 0.22653333-0.0472 0.47196667-0.1416 0.7363-0.50973333 1.2272-2.039 2.38833333-4.5878 3.4834-2.36 1.01946667-4.4368 1.5292-6.2304 1.5292-0.67966667 0-1.31213333-0.05663333-1.8974-0.1699-3.51166667-0.7174-5.2675-3.68156667-5.2675-8.8925zM388.8944 67.0511c-1.71813333 1.15166667-3.06806667 3.34173333-4.0498 6.5702 0.472 0.11333333 0.92513333 0.17 1.3594 0.17 1.567 0 2.9358-0.48146667 4.1064-1.4444 1.30266667-1.05726667 1.954-2.31276667 1.954-3.7665 0-1.45373333-0.46253333-2.19006667-1.3876-2.209-0.6608 0.01893333-1.3216 0.2455-1.9824 0.6797zM397.362 83.59l2.4072-18.1814c0.0378-0.321 0.085-0.6231 0.1416-0.9063 0.33986667-1.62366667 1.0762-2.4355 2.209-2.4355 0.20766667 0 0.41533333 0.01886667 0.623 0.0566 0.86853333 0.20773333 1.3028 1.02903333 1.3028 2.4639 0 0.20766667-0.0189 0.56636667-0.0567 1.0761-0.01886667 0.33986667-0.0283 0.6042-0.0283 0.793 0.03773333-0.07553333 0.08493333-0.15106667 0.1416-0.2266 1.39713333-2.47326667 3.38896667-3.7099 5.9755-3.7099 0.92513333 0 1.77473333 0.27376667 2.5488 0.8213 1.15166667 0.8496 1.7275 1.97296667 1.7275 3.3701 0 0.22653333-0.00943333 0.7646-0.0283 1.6142-0.01886667 1.9258-0.0283 3.45506667-0.0283 4.5878 0 3.85153333 0.11326667 6.11713333 0.3398 6.7968 0.05666667 0.15106667 0.11333333 0.31156667 0.17 0.4815 0.5286 1.43486667 1.27433333 2.1523 2.2372 2.1523 0.16993333 0 0.35873333-0.01886667 0.5664-0.0566 0.5664-0.11333333 1.37826667-0.55703333 2.4356-1.3311 1.0384-0.73633333 1.8691-1.1045 2.4921-1.1045 0.24546667 0 0.48146667 0.0661 0.708 0.1983 0.58526667 0.3398 0.8779 0.89676667 0.8779 1.6709-0.11326667 0.92506667-0.9062 1.94456667-2.3788 3.0585-1.737 1.1706-3.4834 1.7559-5.2392 1.7559-1.416 0-2.6149-0.38706667-3.5967-1.1612-2.02013333-1.62366667-3.0302-5.18253333-3.0302-10.6766 0-0.39646667 0.00943333-1.0384 0.0283-1.9258 0.03773333-0.92506667 0.0566-1.69913333 0.0566-2.3222 0-2.02013333-0.22653333-3.05853333-0.6796-3.1152-0.07553333 0-0.16993333 0.0189-0.2832 0.0567-1.0762 0.39646667-2.45446667 2.53933333-4.1348 6.4286-1.4726 3.41726667-2.4166 6.2587-2.832 8.5243l-0.0566 0.8213c-0.05666667 0.67966667-0.24546667 1.3027-0.5664 1.8691-0.54753333 0.90626667-1.2272 1.3594-2.039 1.3594-0.2266 0-0.45316667-0.0472-0.6797-0.1416-0.8874-0.4154-1.3311-1.30276667-1.3311-2.6621zM423.9262 62.265c1.20833333 0.01893333 1.83136667 0.75526667 1.8691 2.209 0 0.2832-0.07553333 0.8968-0.2266 1.8408-0.64186667 4.2102-0.9628 7.2593-0.9628 9.1473 0 4.07813333 1.0384 6.13606667 3.1152 6.1738 0.45306667-0.03773333 0.8873-0.18876667 1.3027-0.4531 1.7558-1.1328 3.0774-4.75776667 3.9648-10.8749 0.22653333-1.58593333 0.387-3.3512 0.4814-5.2958 0.01886667-0.1888 0.0283-0.3021 0.0283-0.3399 0.01893333-0.13213333 0.03783333-0.25483333 0.0567-0.3681 0.22653333-1.265 0.93453333-1.8975 2.124-1.8975 0.22653333 0 0.4531 0.03776667 0.6797 0.1133 0.8496 0.30206667 1.2744 1.1139 1.2744 2.4355 0 0.15106667-0.00946667 0.35876667-0.0284 0.6231v0.3398l-2.8603 20.8718c4.55006667-3.41726667 7.23103333-5.47516667 8.0429-6.1737 0.73633333-0.6042 1.4632-0.9063 2.1806-0.9063 0.24546667 0 0.50036667 0.07553333 0.7647 0.2266 0.54753333 0.35873333 0.8213 0.84016667 0.8213 1.4443-0.01893333 0.8874-0.53813333 1.76533333-1.5576 2.6338-1.90693333 1.62366667-5.58853333 4.52173333-11.0448 8.6942l-1.2744 9.3173c-0.321 2.22786667-1.34053333 3.91763333-3.0586 5.0693-1.20833333 0.79293333-2.44496667 1.1894-3.7099 1.1894-1.73693333 0-3.27566667-0.65136667-4.6162-1.9541-1.30266667-1.30266667-1.954-2.76586667-1.954-4.3896 0-1.71806667 0.4248-3.11516667 1.2744-4.1913 0.4342-0.54753333 1.3121-1.31216667 2.6337-2.2939 0.16993333-0.1888 2.43553333-1.89746667 6.7968-5.126 0.24546667-1.6992 0.50033333-3.3512 0.7646-4.956-1.095 0.5098-2.35993333 0.7647-3.7948 0.7647-0.67973333 0-1.32166667-0.08496667-1.9258-0.2549-3.304-1.00066667-4.956-4.63506667-4.956-10.9032 0.01886667-3.1152 0.34926667-6.14543333 0.9912-9.0907 0.52866667-2.28446667 1.46323333-3.4928 2.8037-3.625zM428.6556 99.789l0.4815-3.4833c-1.94466667 1.4726-2.99253333 2.275-3.1436 2.4072-1.35933333 1.05726667-2.04843333 2.02013333-2.0673 2.8886 0 0.32093333 0.05663333 0.63246667 0.1699 0.9346 0.321 0.83066667 0.92516667 1.246 1.8125 1.246 0.3398 0 0.64186667-0.05663333 0.9062-0.1699 0.944-0.35873333 1.5576-1.63313333 1.8408-3.8232zM455.8995 71.2142c0.151-1.15173333 0.3398-3.3135 0.5664-6.4853 0.01886667-0.15106667 0.03773333-0.29266667 0.0566-0.4248 0.22653333-1.18946667 0.9534-1.80306667 2.1806-1.8408 0.05666667 0 0.12276667 0.00943333 0.1983 0.0283 1.01953333 0.11326667 1.5293 0.90623333 1.5293 2.3789 0 0.3776-0.03776667 0.944-0.1133 1.6992-0.0378 0.3398-0.06613333 0.59466667-0.085 0.7646-0.32093333 5.11646667-0.4814 8.3544-0.4814 9.7138 0 0.49086667 0.0283 0.98173333 0.0849 1.4726 0.30213333 2.39773333 1.1423 3.5966 2.5205 3.5966 0.1888 0 0.38703333-0.01886667 0.5947-0.0566 0.54753333-0.13213333 1.34993333-0.5758 2.4072-1.331 1.0384-0.7552 1.86913333-1.1328 2.4922-1.1328 0.2454 0 0.4814 0.0755 0.708 0.2265 0.58526667 0.35873333 0.8779 0.9157 0.8779 1.6709 0 0.05666667-0.00943333 0.1322-0.0283 0.2266-0.1322 0.9062-0.91573333 1.84073333-2.3506 2.8036-1.7558 1.18946667-3.5022 1.7842-5.2392 1.7842-2.34106667-0.01886667-4.01193333-1.0856-5.0126-3.2002-1.66146667 2.03906667-3.9365 3.06803333-6.8251 3.0869-0.67966667 0-1.3216-0.08496667-1.9258-0.2549-3.304-1.0006-4.956-4.635-4.956-10.9032 0-3.02073333 0.3304-6.0604 0.9912-9.119 0.0378-0.151 0.07556667-0.31146667 0.1133-0.4814 0.58526667-2.0768 1.416-3.1152 2.4922-3.1152 1.34046667 0.01886667 2.02956667 0.75516667 2.0673 2.2089 0 0.30213333-0.08496667 0.9724-0.2549 2.0108-0.6608 4.22906667-0.9912 7.2876-0.9912 9.1756 0 3.92706667 1.00066667 5.90946667 3.002 5.9472 2.58653333-0.01886667 4.38013333-3.5022 5.3808-10.45zM464.7636 83.59l2.4072-18.1814c0.03773333-0.321 0.08493333-0.6231 0.1416-0.9063 0.33986667-1.62366667 1.0762-2.4355 2.209-2.4355 0.20766667 0 0.41533333 0.01886667 0.623 0.0566 0.86846667 0.20773333 1.3027 1.02903333 1.3027 2.4639 0 0.20766667-0.01886667 0.56636667-0.0566 1.0761-0.01886667 0.33986667-0.0283 0.6042-0.0283 0.793 0.03773333-0.07553333 0.08493333-0.15106667 0.1416-0.2266 1.39706667-2.47326667 3.3889-3.7099 5.9755-3.7099 0.92513333 0 1.77473333 0.27376667 2.5488 0.8213 1.15166667 0.8496 1.7275 1.97296667 1.7275 3.3701 0 0.22653333-0.00943333 0.7646-0.0283 1.6142-0.01886667 1.9258-0.0283 3.45506667-0.0283 4.5878 0 3.85153333 0.11326667 6.11713333 0.3398 6.7968 0.05666667 0.15106667 0.1133 0.31156667 0.1699 0.4815 0.52866667 1.43486667 1.27443333 2.1523 2.2373 2.1523 0.16993333 0 0.35873333-0.01886667 0.5664-0.0566 0.5664-0.11333333 1.37823333-0.55703333 2.4355-1.3311 1.0384-0.73633333 1.86913333-1.1045 2.4922-1.1045 0.2454 0 0.4814 0.0661 0.708 0.1983 0.58526667 0.3398 0.8779 0.89676667 0.8779 1.6709-0.11326667 0.92506667-0.90623333 1.94456667-2.3789 3.0585-1.73693333 1.1706-3.48333333 1.7559-5.2392 1.7559-1.416 0-2.61486667-0.38706667-3.5966-1.1612-2.0202-1.62366667-3.0303-5.18253333-3.0303-10.6766 0-0.39646667 0.00946667-1.0384 0.0284-1.9258 0.03773333-0.92506667 0.0566-1.69913333 0.0566-2.3222 0-2.02013333-0.22656667-3.05853333-0.6797-3.1152-0.07553333 0-0.16993333 0.0189-0.2832 0.0567-1.07613333 0.39646667-2.45436667 2.53933333-4.1347 6.4286-1.47266667 3.41726667-2.41666667 6.2587-2.832 8.5243l-0.0566 0.8213c-0.05666667 0.67966667-0.24546667 1.3027-0.5664 1.8691-0.54753333 0.90626667-1.22723333 1.3594-2.0391 1.3594-0.22653333 0-0.4531-0.0472-0.6797-0.1416-0.88733333-0.4154-1.331-1.30276667-1.331-2.6621z"
      hyvector:transform="scale(1)"
      hyvector:d="M365.4171 50.6822c-0.0000000000001 0.9250666666667 0.2171333333334 1.755766666667 0.6514 2.4921 1.1894 2.057933333333 3.757066666667 3.0869 7.703 3.0869 0.3020666666667-1.6048 0.4531-3.0208 0.4531-4.248 0-0.8496-0.1227000000001-1.652-0.3681-2.4072-0.6797333333333-1.9824-1.9919-2.9736-3.9365-2.9736-0.944 0-1.803033333333 0.2265666666667-2.5771 0.6797-1.283866666667 0.7740666666667-1.9258 1.897433333333-1.9258 3.3701zM337.7202 42.4977c0.3776 0 0.7363 0.0944 1.0761 0.2832 0.7552 0.4342 1.1517 1.0761 1.1895 1.9257-0.793 6.192666666667-1.4066 11.05426666667-1.8408 14.5848-1.0762 8.6282-1.6143 13.51813333333-1.6143 14.6698 0 4.7766 1.2272 7.174366666667 3.6816 7.1933 2.039066666667 0 4.0498-0.4531333333333 6.0322-1.3594-0.6986000000001-2.794266666667-1.0479-5.4941-1.0479-8.0995 0-2.341133333333 0.1416-4.417933333333 0.4248-6.2304 1.000666666667-6.2304 3.634433333333-9.3456 7.9013-9.3456 1.736933333333 0 3.209566666667 0.5192 4.4179 1.5576 1.6048 1.397133333333 2.4072 3.360666666667 2.4072 5.8906-0.0000000000001 0.6608-0.0283 1.331033333333-0.0849 2.0107-0.3965333333333 4.285733333333-1.925833333333 8.326033333333-4.5879 12.1209-1.264933333333 1.812466666667-2.3694 3.0208-3.3134 3.625 0.151 0.4908666666667 0.6796333333333 0.7363 1.5859 0.7363 4.096933333333-0.0188666666667 7.9107-2.256133333333 11.4413-6.7118 2.983-3.794866666667 5.427966666667-8.6659 7.3349-14.6131-3.4362-0.1510666666667-6.1927-1.057333333333-8.2695-2.7188-2.4166-1.9446-3.6249-4.635-3.6249-8.0712 0.0188666666666-2.36 0.9628666666667-4.361266666667 2.832-6.0038 1.642533333333-1.397133333333 3.473866666667-2.0957 5.494-2.0957 2.624333333333 0 4.814433333333 0.8496 6.5703 2.5488 1.9824 1.944666666667 2.9736 4.531233333333 2.9736 7.7597 0 0.7363333333333-0.0661 1.925766666667-0.1983 3.5683 0.4154-0.0944 0.8307666666666-0.2171 1.2461-0.3681 1.019533333333-0.3398666666667 2.2845-0.9818 3.7949-1.9258 1.076133333333-0.6796666666667 1.9635-1.0195 2.6621-1.0195 0.3020666666667 0 0.5852666666667 0.0755 0.8496 0.2265 0.7174000000001 0.4154 1.0761 1.0479 1.0761 1.8975-0.0188666666667 1.151666666667-0.9534 2.275033333333-2.8036 3.3701-2.190133333333 1.2838-4.814466666667 2.1334-7.873 2.5488-1.718066666667 6.4758-4.219666666667 11.96043333333-7.5048 16.4539-4.72 6.456933333333-10.35566666667 9.6854-16.907 9.6854-0.1510666666666 0-0.321-0.0094333333333-0.5098-0.0283-1.774733333333-0.1322-3.2757-0.8968333333333-4.5029-2.2939-2.6998 1.416-5.6073 2.124-8.7225 2.124-1.6992 0-3.124633333333-0.5097666666667-4.2763-1.5293-2.1712-1.9258-3.2568-5.4186-3.2568-10.4784 0-3.436133333333 0.4625333333333-7.920133333333 1.3876-13.452 0.8874-5.399666666667 1.4255-9.204 1.6143-11.413-1.869133333333 1.189466666667-3.351233333333 2.1146-4.4463 2.7754-1.8502 1.1328-2.945233333333 1.6992-3.2851 1.6992-0.4153333333333 0-0.8212333333333-0.1132666666667-1.2177-0.3398-0.7363333333333-0.472-1.1045-1.1328-1.1045-1.9824 0.0188666666667-0.793 0.4719666666667-1.501 1.3593-2.124 0.0944-0.0755333333333 0.3115333333333-0.2266 0.6514-0.4532 6.400333333333-4.399 10.06306666667-6.5985 10.9882-6.5985zM350.2376 76.8498c0.6041333333334-0.472 1.2366-1.151666666667 1.8974-2.039 2.209-3.001933333333 3.3135-6.494733333333 3.3135-10.4784 0-0.1699333333333-0.0094666666666-0.3398666666667-0.0284-0.5098-0.0944-1.548133333333-0.8118333333334-2.3222-2.1523-2.3222-1.0006 0.0188666666667-1.8313 0.944-2.4921 2.7754-0.7174666666667 2.1334-1.0762 4.738833333333-1.0762 7.8163 0 1.151666666667 0.1793666666667 2.737566666667 0.5381 4.7577zM379.8037 77.8693c0-0.6418666666667 0.0377333333333-1.321533333333 0.1132-2.039 0.3965333333333-3.228466666667 1.416066666667-6.098233333333 3.0586-8.6093 2.001266666667-3.0774 4.408466666667-4.6161 7.2216-4.6161 0.7551999999999 0 1.482066666667 0.0944 2.1806 0.2832 2.4922 0.7174 3.7383 2.473233333333 3.7383 5.2675 0 0.2076666666667-0.0094666666666 0.4248-0.0284 0.6514-0.1888 2.529866666667-1.3216 4.653833333333-3.3984 6.3719-2.039 1.6992-4.408433333333 2.5488-7.1083 2.5488-0.5097333333333 0-1.010033333333-0.0472-1.5009-0.1416-0.0378 0.2832-0.0567 0.6797-0.0567 1.1895 0 1.095 0.1888 1.9446 0.5664 2.5488 0.5098 0.7740666666667 1.557633333333 1.227166666667 3.1435 1.3593 0.6986 0 1.387733333333-0.0755 2.0674-0.2265 1.189466666667-0.2832 2.596033333333-0.9534333333333 4.2197-2.0107 1.057266666667-0.6986 1.803033333333-1.0479 2.2373-1.0479 0.2454 0 0.5002666666667 0.0755333333333 0.7646 0.2266 0.6041333333333 0.3587333333333 0.9062 0.8779333333333 0.9062 1.5576-0.0000000000001 0.2265333333333-0.0472 0.4719666666667-0.1416 0.7363-0.5097333333333 1.2272-2.039 2.388333333333-4.5878 3.4834-2.36 1.019466666667-4.4368 1.5292-6.2304 1.5292-0.6796666666667 0-1.312133333333-0.0566333333333-1.8974-0.1699-3.511666666667-0.7174-5.2675-3.681566666667-5.2675-8.8925zM388.8944 67.0511c-1.718133333333 1.151666666667-3.068066666667 3.341733333333-4.0498 6.5702 0.472 0.1133333333333 0.9251333333333 0.17 1.3594 0.17 1.567 0 2.9358-0.4814666666667 4.1064-1.4444 1.302666666667-1.057266666667 1.954-2.312766666667 1.954-3.7665 0-1.453733333333-0.4625333333333-2.190066666667-1.3876-2.209-0.6607999999999 0.0189333333333-1.3216 0.2455-1.9824 0.6797zM397.362 83.59l2.4072-18.1814c0.0378-0.321 0.085-0.6231 0.1416-0.9063 0.3398666666666-1.623666666667 1.0762-2.4355 2.209-2.4355 0.2076666666667 0 0.4153333333333 0.0188666666667 0.623 0.0566 0.8685333333333 0.2077333333333 1.3028 1.029033333333 1.3028 2.4639 0 0.2076666666667-0.0189 0.5663666666667-0.0567 1.0761-0.0188666666667 0.3398666666667-0.0282999999999 0.6042-0.0283 0.793 0.0377333333333-0.0755333333333 0.0849333333334-0.1510666666667 0.1416-0.2266 1.397133333333-2.473266666667 3.388966666667-3.7099 5.9755-3.7099 0.9251333333333 0 1.774733333333 0.2737666666667 2.5488 0.8213 1.151666666667 0.8496 1.7275 1.972966666667 1.7275 3.3701 0 0.2265333333333-0.0094333333333 0.7646-0.0283 1.6142-0.0188666666667 1.9258-0.0283 3.455066666667-0.0283 4.5878 0 3.851533333333 0.1132666666667 6.117133333333 0.3398 6.7968 0.0566666666667 0.1510666666667 0.1133333333333 0.3115666666667 0.17 0.4815 0.5286 1.434866666667 1.274333333333 2.1523 2.2372 2.1523 0.1699333333333 0 0.3587333333333-0.0188666666667 0.5664-0.0566 0.5664-0.1133333333333 1.378266666667-0.5570333333333 2.4356-1.3311 1.0384-0.7363333333333 1.8691-1.1045 2.4921-1.1045 0.2454666666667 0 0.4814666666667 0.0661 0.708 0.1983 0.5852666666667 0.3398 0.8779 0.8967666666667 0.8779 1.6709-0.1132666666666 0.9250666666667-0.9062 1.944566666667-2.3788 3.0585-1.737 1.1706-3.4834 1.7559-5.2392 1.7559-1.416 0-2.6149-0.3870666666667-3.5967-1.1612-2.020133333333-1.623666666667-3.0302-5.182533333333-3.0302-10.6766 0-0.3964666666667 0.0094333333333-1.0384 0.0283-1.9258 0.0377333333333-0.9250666666667 0.0566-1.699133333333 0.0566-2.3222 0-2.020133333333-0.2265333333333-3.058533333333-0.6796-3.1152-0.0755333333333 0-0.1699333333333 0.0189-0.2832 0.0567-1.0762 0.3964666666667-2.454466666667 2.539333333333-4.1348 6.4286-1.4726 3.417266666667-2.4166 6.2587-2.832 8.5243l-0.0566 0.8213c-0.0566666666667 0.6796666666667-0.2454666666666 1.3027-0.5664 1.8691-0.5475333333333 0.9062666666667-1.2272 1.3594-2.039 1.3594-0.2266 0-0.4531666666667-0.0472-0.6797-0.1416-0.8874-0.4154-1.3311-1.302766666667-1.3311-2.6621zM423.9262 62.265c1.208333333333 0.0189333333333 1.831366666667 0.7552666666667 1.8691 2.209 0 0.2832-0.0755333333333 0.8968-0.2266 1.8408-0.6418666666667 4.2102-0.9628 7.2593-0.9628 9.1473 0 4.078133333333 1.0384 6.136066666667 3.1152 6.1738 0.4530666666667-0.0377333333333 0.8873-0.1887666666667 1.3027-0.4531 1.7558-1.1328 3.0774-4.757766666667 3.9648-10.8749 0.2265333333334-1.585933333333 0.387-3.3512 0.4814-5.2958 0.0188666666667-0.1888 0.0283-0.3021 0.0283-0.3399 0.0189333333333-0.1321333333333 0.0378333333333-0.2548333333333 0.0567-0.3681 0.2265333333334-1.265 0.9345333333334-1.8975 2.124-1.8975 0.2265333333334 0 0.4531 0.0377666666667 0.6797 0.1133 0.8496 0.3020666666667 1.2744 1.1139 1.2744 2.4355 0 0.1510666666667-0.0094666666666 0.3587666666667-0.0284 0.6231v0.3398l-2.8603 20.8718c4.550066666667-3.417266666667 7.231033333333-5.475166666667 8.0429-6.1737 0.7363333333333-0.6042 1.4632-0.9063 2.1806-0.9063 0.2454666666667 0 0.5003666666667 0.0755333333333 0.7647 0.2266 0.5475333333333 0.3587333333333 0.8213 0.8401666666667 0.8213 1.4443-0.0189333333333 0.8874-0.5381333333333 1.765333333333-1.5576 2.6338-1.906933333333 1.623666666667-5.588533333333 4.521733333333-11.0448 8.6942l-1.2744 9.3173c-0.321 2.227866666667-1.340533333333 3.917633333333-3.0586 5.0693-1.208333333333 0.7929333333333-2.444966666667 1.1894-3.7099 1.1894-1.736933333333 0-3.275666666667-0.6513666666667-4.6162-1.9541-1.302666666667-1.302666666667-1.954-2.765866666667-1.954-4.3896 0-1.718066666667 0.4248-3.115166666667 1.2744-4.1913 0.4342-0.5475333333333 1.3121-1.312166666667 2.6337-2.2939 0.1699333333334-0.1888 2.435533333333-1.897466666667 6.7968-5.126 0.2454666666667-1.6992 0.5003333333333-3.3512 0.7646-4.956-1.095 0.5098-2.359933333333 0.7647-3.7948 0.7647-0.6797333333333 0-1.321666666667-0.0849666666667-1.9258-0.2549-3.304-1.000666666667-4.956-4.635066666667-4.956-10.9032 0.0188666666667-3.1152 0.3492666666667-6.145433333333 0.9912-9.0907 0.5286666666667-2.284466666667 1.463233333333-3.4928 2.8037-3.625zM428.6556 99.789l0.4815-3.4833c-1.944666666667 1.4726-2.992533333333 2.275-3.1436 2.4072-1.359333333333 1.057266666667-2.048433333333 2.020133333333-2.0673 2.8886 0.0000000000001 0.3209333333333 0.0566333333333 0.6324666666667 0.1699 0.9346 0.321 0.8306666666667 0.9251666666667 1.246 1.8125 1.246 0.3398 0 0.6418666666667-0.0566333333333 0.9062-0.1699 0.944-0.3587333333333 1.5576-1.633133333333 1.8408-3.8232zM455.8995 71.2142c0.151-1.151733333333 0.3398-3.3135 0.5664-6.4853 0.0188666666667-0.1510666666667 0.0377333333333-0.2926666666667 0.0566-0.4248 0.2265333333334-1.189466666667 0.9534-1.803066666667 2.1806-1.8408 0.0566666666666 0 0.1227666666666 0.0094333333333 0.1983 0.0283 1.019533333333 0.1132666666667 1.5293 0.9062333333333 1.5293 2.3789 0.0000000000001 0.3776-0.0377666666666 0.944-0.1133 1.6992-0.0378 0.3398-0.0661333333333 0.5946666666667-0.085 0.7646-0.3209333333334 5.116466666667-0.4814 8.3544-0.4814 9.7138 0 0.4908666666667 0.0282999999999 0.9817333333333 0.0849 1.4726 0.3021333333333 2.397733333333 1.1423 3.5966 2.5205 3.5966 0.1888 0 0.3870333333333-0.0188666666667 0.5947-0.0566 0.5475333333333-0.1321333333333 1.349933333333-0.5758 2.4072-1.331 1.0384-0.7552 1.869133333333-1.1328 2.4922-1.1328 0.2454 0 0.4814000000001 0.0755 0.708 0.2265 0.5852666666667 0.3587333333333 0.8779 0.9157 0.8779 1.6709 0 0.0566666666667-0.0094333333334 0.1322-0.0283 0.2266-0.1322 0.9062-0.9157333333333 1.840733333333-2.3506 2.8036-1.7558 1.189466666667-3.5022 1.7842-5.2392 1.7842-2.341066666667-0.0188666666667-4.011933333333-1.0856-5.0126-3.2002-1.661466666667 2.039066666667-3.9365 3.068033333333-6.8251 3.0869-0.6796666666667 0-1.3216-0.0849666666667-1.9258-0.2549-3.304-1.0006-4.956-4.635-4.956-10.9032-0.0000000000001-3.020733333333 0.3304-6.0604 0.9912-9.119 0.0377999999999-0.151 0.0755666666666-0.3114666666667 0.1133-0.4814 0.5852666666667-2.0768 1.416-3.1152 2.4922-3.1152 1.340466666667 0.0188666666667 2.029566666667 0.7551666666667 2.0673 2.2089 0.0000000000001 0.3021333333333-0.0849666666667 0.9724-0.2549 2.0108-0.6607999999999 4.229066666667-0.9912 7.2876-0.9912 9.1756 0 3.927066666667 1.000666666667 5.909466666667 3.002 5.9472 2.586533333333-0.0188666666667 4.380133333333-3.5022 5.3808-10.45zM464.7636 83.59l2.4072-18.1814c0.0377333333333-0.321 0.0849333333334-0.6231 0.1416-0.9063 0.3398666666667-1.623666666667 1.0762-2.4355 2.209-2.4355 0.2076666666666 0 0.4153333333333 0.0188666666667 0.623 0.0566 0.8684666666667 0.2077333333333 1.3027 1.029033333333 1.3027 2.4639 0.0000000000001 0.2076666666667-0.0188666666667 0.5663666666667-0.0566 1.0761-0.0188666666666 0.3398666666667-0.0283 0.6042-0.0283 0.793 0.0377333333333-0.0755333333333 0.0849333333333-0.1510666666667 0.1416-0.2266 1.397066666667-2.473266666667 3.3889-3.7099 5.9755-3.7099 0.9251333333333 0 1.774733333333 0.2737666666667 2.5488 0.8213 1.151666666667 0.8496 1.7275 1.972966666667 1.7275 3.3701 0 0.2265333333333-0.0094333333334 0.7646-0.0283 1.6142-0.0188666666666 1.9258-0.0283 3.455066666667-0.0283 4.5878 0 3.851533333333 0.1132666666666 6.117133333333 0.3398 6.7968 0.0566666666666 0.1510666666667 0.1133 0.3115666666667 0.1699 0.4815 0.5286666666667 1.434866666667 1.274433333333 2.1523 2.2373 2.1523 0.1699333333333 0 0.3587333333334-0.0188666666667 0.5664-0.0566 0.5664-0.1133333333333 1.378233333333-0.5570333333333 2.4355-1.3311 1.0384-0.7363333333333 1.869133333333-1.1045 2.4922-1.1045 0.2454 0 0.4814000000001 0.0661 0.708 0.1983 0.5852666666667 0.3398 0.8779 0.8967666666667 0.8779 1.6709-0.1132666666667 0.9250666666667-0.9062333333333 1.944566666667-2.3789 3.0585-1.736933333333 1.1706-3.483333333333 1.7559-5.2392 1.7559-1.416 0-2.614866666667-0.3870666666667-3.5966-1.1612-2.0202-1.623666666667-3.0303-5.182533333333-3.0303-10.6766 0.0000000000001-0.3964666666667 0.0094666666667-1.0384 0.0284-1.9258 0.0377333333333-0.9250666666667 0.0566-1.699133333333 0.0566-2.3222 0-2.020133333333-0.2265666666667-3.058533333333-0.6797-3.1152-0.0755333333333 0-0.1699333333333 0.0189-0.2832 0.0567-1.076133333333 0.3964666666667-2.454366666667 2.539333333333-4.1347 6.4286-1.472666666667 3.417266666667-2.416666666667 6.2587-2.832 8.5243l-0.0566 0.8213c-0.0566666666667 0.6796666666667-0.2454666666666 1.3027-0.5664 1.8691-0.5475333333334 0.9062666666667-1.227233333333 1.3594-2.0391 1.3594-0.2265333333334 0-0.4531000000001-0.0472-0.6797-0.1416-0.8873333333333-0.4154-1.331-1.302766666667-1.331-2.6621z"
      hyvector:nodetypes="7c47c7c22c6c36c35c7c30c36c"
      fill="#67666d"
      />
    <hyvector:text
        xmlns="http://www.w3.org/1999/xhtml"
        style="font-weight: 400; font-style: normal; text-decoration: none; font-family: Roboto; font-size:12px;"
        transform="translate(325.54256005, 86.53526259) scale(0.99998846, 0.99998846)"
        >
      <tspan
          xmlns="http://www.w3.org/2000/svg"
          style="white-space: pre; font-weight: 300; font-style: normal; text-decoration: none; font-size: 58px; font-family: Vibur; fill: rgb(103, 102, 109);"
          >Wenyun</tspan>
    </hyvector:text>
  </g>
  <path
    d="M207.73357494 98.17939486c0 0 14.78315978-12.27617291 22.74096445-17.71863291 4.27622158-2.92457101 8.56993499-5.83092231 13.05393461-8.4298864 5.86555987-3.39972808 11.82281696-6.6874332 18.18516981-9.06354748 4.83055099-1.80404033 9.09462648-3.73362818 13.84535375-5.7710887 5.07000497-2.17439024 8.88983199-4.64359717 12.98908722-8.73402071 3.41547411-3.40811559 4.39447262-3.18270528 6.68901722-9.59811753 0.68688323-1.92048524-0.2053976-5.54551405-1.82907569-7.03896646-2.58346599-2.37626137-6.3436248-2.93936322-9.73692888-2.70253572-5.57726909 0.38925208-8.71514592 3.36690062-11.73212765 7.82538429-1.42210319 2.10157848-0.64704318 6.59770542 0.26811863 7.53391659 1.11453626 1.14017136 2.77869881-0.79590544 4.3311275-4.12246365 1.88851027-4.04671684-0.57857986-8.27187296-3.9155351-10.75029908-3.37221505-2.50461432-7.89789425-2.2573479-11.52721146-0.58074845-3.90390173 1.80344651-5.92335776 4.39982605-6.13300087 7.69667486-0.4124031 6.48545365 1.37787514 7.90683136 3.86317366 10.42273822 3.68499884 3.73038241 6.43035866 5.20030927 9.79083728 7.05034452 5.25396282 2.89245 9.6202417 4.81842187 15.49220713 5.82060971 6.31320884 1.07749632 10.66168307 1.76152179 17.03390537 1.15212358 4.42701044-0.42337071 8.87865463-0.95703009 13.08877951-2.4443057 4.6797625-1.65318057 8.66266036-4.69912901 12.88616284-7.23741625 3.51407579-2.11192813 10.38249174-6.59084963 10.38249174-6.59084963"
    stroke-width="4.3"
    stroke-linecap="round"
    stroke-linejoin="round"
    hyvector:transform="scale(1)"
    hyvector:d="M207.7335749391 98.17939486344c-0.0000000000415 0.0000000000017 14.78315977647-12.27617291284 22.74096445532-17.71863291634 4.27622157138-2.924571010167 8.56993498883-5.830922306977 13.0539346084-8.429886392688 5.865559864109-3.399728082693 11.82281696131-6.687433206898 18.18516980394-9.063547479461 4.830550994143-1.804040336245 9.094626488164-3.733628183544 13.84535375669-5.771088708127 5.070004964636-2.17439023354 8.88983198159-4.643597162896 12.98908721906-8.734020708921 3.415474102952-3.408115592282 4.39447261651-3.182705278785 6.689017221765-9.598117530052 0.6868832224642-1.920485237243-0.2053976076427-5.545514045412-1.829075698565-7.038966460318-2.583465987511-2.376261365752-6.343624793496-2.939363215904-9.736928872931-2.70253571815-5.577269096028 0.3892520839263-8.715145921438 3.366900618418-11.73212764895 7.825384286035-1.422103196395 2.101578480561-0.6470431879206 6.597705423973 0.2681186282977 7.533916593255 1.114536255981 1.14017135869 2.778698806935-0.795905437865 4.33112750008-4.122463643968 1.888510270601-4.046716841632-0.578579866439-8.271872964571-3.915535106463-10.75029908927-3.372215049616-2.504614319304-7.897894247203-2.257347900194-11.52721146042-0.5807484501956-3.903901729018 1.803446518225-5.923357758516 4.399826056492-6.133000865987 7.696674862564-0.4124030967203 6.485453652358 1.377875145457 7.906831364032 3.86317365633 10.42273822067 3.684998842966 3.730382412878 6.430358667528 5.200309271696 9.790837287804 7.050344519639 5.253962816989 2.892450005236 9.620241697572 4.81842186998 15.49220712904 5.820609713272 6.313208835453 1.077496320593 10.66168306507 1.761521789405 17.03390536652 1.15212357428 4.427010445032-0.4233707074107 8.878654628379-0.9570300875366 13.0887795154-2.444305699288 4.679762497808-1.653180563175 8.662660354329-4.699129002851 12.8861628339-7.237416241608 3.514075790208-2.111928139612 10.38249173747-6.590849633719 10.38249173747-6.590849633719"
    hyvector:nodetypes="c20sc"
    fill="none"
    stroke="#67666d"
    />
</svg>