<svg
    xmlns="http://www.w3.org/2000/svg"
    xmlns:hyvector="https://www.hyvector.com/dtd"
    width="440"
    height="120"
    viewBox="0 0 440 120"
    >
  <title>hero</title>
  <g
      hyvector:transform="translate(-17.36085, 0)"
      >
    <g>
      <path
        d="M41.51 74.79c0 0.02-0.01 0.05-0.03 0.11-0.2 1.47-0.96 2.21-2.26 2.21-0.45 0-0.85-0.11-1.19-0.34-0.76-0.49-1.13-1.29-1.13-2.41l1.92-14.87h-13c-0.73 6.03-1.4 11.12-2.01 15.3-0.26 1.53-1.04 2.3-2.32 2.32-0.42 0-0.78-0.1-1.1-0.31-0.8-0.51-1.19-1.33-1.19-2.47 0.11-0.98 1.2-9.19 3.28-24.63 1.28-9.5 1.93-14.28 1.93-14.33 0-0.29 0.11-0.62 0.34-1 0.51-0.81 1.14-1.21 1.89-1.21 0.36 0 0.7 0.09 1.02 0.28 0.74 0.43 1.14 1.08 1.19 1.93l-2.43 19.51c3.04-0.04 7.38-0.06 13.02-0.06 0.19-1.53 0.53-4.14 1.02-7.84 0.67-4.89 1.17-8.76 1.53-11.61 0.04-0.29 0.12-0.57 0.23-0.85 0.42-0.91 1.11-1.36 2.1-1.36 0.35 0 0.7 0.09 1.04 0.28 0.76 0.43 1.16 1.08 1.22 1.93l-2.46 19.45h7.13c0.44 0 0.84 0.08 1.22 0.23 0.95 0.41 1.42 1.12 1.42 2.12 0 0.3-0.08 0.61-0.23 0.91-0.38 0.77-1.11 1.24-2.21 1.41h-7.9c-1.17 9.1-1.85 14.2-2.04 15.3zM55.59 68.44c0-0.64 0.04-1.32 0.11-2.04 0.4-3.22 1.42-6.09 3.06-8.6 2-3.08 4.41-4.62 7.22-4.62 0.76 0 1.48 0.09 2.18 0.28 2.49 0.72 3.74 2.48 3.74 5.27 0 0.21-0.01 0.42-0.03 0.65-0.19 2.53-1.32 4.65-3.4 6.37-2.04 1.7-4.41 2.55-7.11 2.55-0.51 0-1.01-0.05-1.5-0.14-0.03 0.28-0.05 0.68-0.05 1.19 0 1.09 0.19 1.94 0.56 2.55 0.51 0.77 1.56 1.23 3.15 1.36 0.7 0 1.38-0.08 2.06-0.23 1.19-0.28 2.6-0.95 4.22-2.01 1.06-0.7 1.81-1.05 2.24-1.05 0.25 0 0.5 0.08 0.77 0.23 0.6 0.36 0.9 0.88 0.9 1.56 0 0.22-0.04 0.47-0.14 0.73-0.51 1.23-2.04 2.39-4.59 3.49-2.36 1.02-4.43 1.53-6.23 1.53-0.68 0-1.31-0.06-1.9-0.17-3.51-0.72-5.26-3.69-5.26-8.9zM64.68 57.63c-1.72 1.15-3.07 3.34-4.05 6.57 0.47 0.11 0.92 0.17 1.36 0.17 1.56 0 2.93-0.49 4.1-1.45 1.31-1.06 1.96-2.31 1.96-3.77 0-1.45-0.46-2.19-1.39-2.2-0.66 0.01-1.32 0.24-1.98 0.68zM73.15 74.16l2.4-18.18c0.04-0.32 0.09-0.62 0.14-0.9 0.34-1.63 1.08-2.44 2.21-2.44 0.21 0 0.42 0.02 0.63 0.06 0.87 0.21 1.3 1.03 1.3 2.46 0 0.21-0.02 0.57-0.06 1.08-0.02 0.34-0.03 0.6-0.03 0.79 0.04-0.08 0.09-0.15 0.15-0.23 1.39-2.47 3.39-3.71 5.97-3.71 0.93 0 1.78 0.28 2.55 0.83 1.15 0.84 1.73 1.97 1.73 3.37 0 0.22-0.01 0.76-0.03 1.61-0.02 1.93-0.03 3.45-0.03 4.59 0 3.85 0.11 6.11 0.34 6.79 0.06 0.16 0.11 0.32 0.17 0.49 0.53 1.43 1.28 2.15 2.24 2.15 0.17 0 0.36-0.02 0.56-0.06 0.57-0.11 1.38-0.56 2.44-1.33 1.04-0.74 1.87-1.1 2.49-1.1 0.25 0 0.48 0.06 0.71 0.19 0.59 0.34 0.88 0.9 0.88 1.67-0.11 0.93-0.91 1.95-2.38 3.06-1.74 1.17-3.48 1.76-5.24 1.76-1.42 0-2.61-0.39-3.6-1.16-2.02-1.63-3.03-5.18-3.03-10.68 0-0.39 0.01-1.04 0.03-1.92 0.04-0.93 0.06-1.7 0.06-2.33 0-2.02-0.23-3.06-0.68-3.11-0.08 0-0.17 0.02-0.28 0.05-1.08 0.4-2.46 2.54-4.14 6.43-1.47 3.42-2.42 6.26-2.83 8.53l-0.06 0.82c-0.05 0.68-0.24 1.3-0.56 1.87-0.55 0.9-1.23 1.36-2.04 1.36-0.23 0-0.46-0.05-0.68-0.14-0.89-0.42-1.33-1.31-1.33-2.67zM95.92 68.36c0-0.64 0.03-1.32 0.11-2.04 0.4-3.25 1.41-6.13 3.06-8.64 2-3.06 4.41-4.59 7.22-4.59 1.23 0 2.3 0.24 3.23 0.71 0.38-0.45 0.88-0.69 1.53-0.71 1.24 0.02 1.88 0.83 1.92 2.41 0 0.06-1.04 7.53-3.11 22.43 4.17-3.11 6.81-5.13 7.93-6.06 0.7-0.6 1.42-0.92 2.18-0.93 0.26 0 0.52 0.08 0.76 0.25 0.55 0.38 0.82 0.86 0.82 1.44-0.02 0.89-0.53 1.77-1.55 2.64-1.89 1.58-5.56 4.46-11.02 8.64l-1.3 9.37c-0.32 2.15-1.24 3.8-2.75 4.93-1.23 0.89-2.58 1.33-4.05 1.33-1.74-0.02-3.28-0.68-4.62-1.98-1.28-1.31-1.92-2.76-1.92-4.36 0-1.59 0.36-2.9 1.07-3.94 0.46-0.66 1.34-1.47 2.64-2.44l0.05-0.02c0.02-0.02 0.08-0.07 0.17-0.15 1.31-0.96 3.56-2.65 6.77-5.07l0.82-5.49c-1.26 0.85-2.58 1.28-3.96 1.3-1.21 0-2.26-0.31-3.14-0.93-1.91-1.4-2.86-4.1-2.86-8.1zM105.97 70.28c0.26-0.37 0.58-1.38 0.96-3.03 0.77-3.34 1.33-6.7 1.67-10.08-0.43-0.22-0.87-0.35-1.33-0.37-0.34 0-0.69 0.05-1.05 0.15-1.75 0.49-3.24 2.11-4.47 4.87-1.08 2.47-1.61 4.95-1.61 7.44 0 0.27 0 0.53 0.02 0.8 0.14 1.98 0.72 2.97 1.76 2.97 0.53 0 1.17-0.26 1.93-0.79 0.88-0.62 1.59-1.28 2.12-1.96zM103.65 91.01l0.48-3.45c-0.08 0.06-0.16 0.12-0.26 0.2-1.87 1.43-2.82 2.17-2.86 2.21-1.36 1.02-2.05 1.98-2.06 2.89 0 0.32 0.05 0.62 0.17 0.9 0.32 0.83 0.91 1.25 1.78 1.25 0.36 0 0.68-0.06 0.96-0.17 0.93-0.4 1.52-1.67 1.79-3.83zM118.8 45.76h0.28c1.06 0.04 2.01 0.06 2.86 0.06l1.25-8.76c0.07-0.58 0.17-1.07 0.28-1.47 0.34-1.24 1.03-1.87 2.07-1.87 0.21 0 0.41 0.02 0.62 0.06 0.87 0.21 1.3 1.03 1.3 2.46 0 0.46-0.37 3.65-1.13 9.58h2.98c0.5 0 0.95 0.1 1.33 0.31 0.66 0.39 0.99 0.98 0.99 1.75 0 0.34-0.09 0.66-0.26 0.97-0.43 0.71-1.14 1.07-2.12 1.07h-3.51c-1.48 11.33-2.21 17.68-2.21 19.06 0 0.87 0.18 1.68 0.54 2.44 0.52 1.13 1.22 1.7 2.09 1.7 0.21 0 0.43-0.03 0.65-0.09 0.51-0.13 1.24-0.57 2.18-1.3 0.93-0.74 1.7-1.11 2.33-1.11 0.26 0 0.52 0.06 0.76 0.17 0.68 0.34 1.02 0.86 1.02 1.56-0.06 0.98-0.78 2-2.18 3.06-1.7 1.23-3.5 1.84-5.41 1.84-1.87-0.02-3.4-0.8-4.59-2.35-1.21-1.64-1.81-3.71-1.81-6.2 0-0.55 0.75-6.81 2.24-18.78h-2.89c-1.3-0.11-1.96-0.79-1.96-2.04 0-0.34 0.06-0.65 0.17-0.93 0.34-0.79 1.05-1.19 2.13-1.19zM137.35 53.32c0.66 0.02 1.28 0.09 1.87 0.2 2.9 0.62 4.69 2.89 5.35 6.8 0.36-0.21 0.95-0.6 1.78-1.17 1.14-0.77 2-1.16 2.58-1.16 0.28 0 0.56 0.09 0.82 0.26 0.59 0.38 0.88 0.89 0.88 1.53-0.02 0.64-0.43 1.35-1.25 2.12-1.15 1.06-2.64 1.96-4.47 2.69-0.02 2.95-0.46 5.44-1.33 7.48-1.42 3.32-3.74 4.98-6.97 4.98-1.15 0-2.3-0.37-3.45-1.1-2.67-1.76-4-4.92-4-9.49 0-2.76 0.47-5.27 1.39-7.53 1.46-3.57 3.72-5.44 6.8-5.61zM140.89 65.33c-0.74-0.02-1.44-0.1-2.1-0.23-2.49-0.53-4.09-1.85-4.81-3.96-0.49 1.58-0.74 3.31-0.74 5.18 0 0.91 0.09 1.78 0.26 2.63 0.53 2.59 1.68 3.88 3.45 3.88 0.59 0 1.12-0.18 1.59-0.53 1.38-1.06 2.16-3.38 2.35-6.97zM140.46 61.48h0.4c-0.28-2.59-0.96-3.89-2.04-3.91-0.09 0-0.19 0.01-0.28 0.03-0.42 0.15-0.63 0.46-0.63 0.93 0 0.42 0.07 0.82 0.2 1.22 0.42 1.15 1.2 1.73 2.35 1.73zM147.18 74.16l2.4-18.18c0.04-0.32 0.09-0.62 0.14-0.9 0.34-1.63 1.08-2.44 2.21-2.44 0.21 0 0.42 0.02 0.63 0.06 0.86 0.21 1.3 1.03 1.3 2.46 0 0.21-0.02 0.57-0.06 1.08-0.02 0.34-0.03 0.6-0.03 0.79 0.04-0.08 0.09-0.15 0.15-0.23 1.39-2.47 3.38-3.71 5.97-3.71 0.93 0 1.78 0.28 2.55 0.83 1.15 0.84 1.73 1.97 1.73 3.37 0 0.22-0.01 0.76-0.03 1.61-0.02 1.93-0.03 3.45-0.03 4.59 0 3.85 0.11 6.11 0.34 6.79 0.06 0.16 0.11 0.32 0.17 0.49 0.53 1.43 1.27 2.15 2.24 2.15 0.17 0 0.36-0.02 0.56-0.06 0.57-0.11 1.38-0.56 2.44-1.33 1.04-0.74 1.87-1.1 2.49-1.1 0.25 0 0.48 0.06 0.71 0.19 0.59 0.34 0.88 0.9 0.88 1.67-0.12 0.93-0.91 1.95-2.38 3.06-1.74 1.17-3.48 1.76-5.24 1.76-1.42 0-2.62-0.39-3.6-1.16-2.02-1.63-3.03-5.18-3.03-10.68 0-0.39 0.01-1.04 0.03-1.92 0.04-0.93 0.06-1.7 0.06-2.33 0-2.02-0.23-3.06-0.68-3.11-0.08 0-0.17 0.02-0.29 0.05-1.07 0.4-2.45 2.54-4.13 6.43-1.47 3.42-2.42 6.26-2.83 8.53l-0.06 0.82c-0.06 0.68-0.24 1.3-0.57 1.87-0.54 0.9-1.22 1.36-2.03 1.36-0.23 0-0.46-0.05-0.68-0.14-0.89-0.42-1.33-1.31-1.33-2.67zM169.94 68.36c0-0.64 0.04-1.32 0.12-2.04 0.39-3.25 1.41-6.13 3.06-8.64 2-3.06 4.41-4.59 7.22-4.59 1.23 0 2.3 0.24 3.23 0.71 0.37-0.45 0.88-0.69 1.53-0.71 1.24 0.02 1.88 0.83 1.92 2.41 0 0.06-1.04 7.53-3.11 22.43 4.17-3.11 6.81-5.13 7.93-6.06 0.69-0.6 1.42-0.92 2.18-0.93 0.26 0 0.52 0.08 0.76 0.25 0.55 0.38 0.82 0.86 0.82 1.44-0.02 0.89-0.54 1.77-1.55 2.64-1.89 1.58-5.56 4.46-11.02 8.64l-1.3 9.37c-0.32 2.15-1.24 3.8-2.75 4.93-1.23 0.89-2.58 1.33-4.05 1.33-1.74-0.02-3.28-0.68-4.62-1.98-1.28-1.31-1.92-2.76-1.92-4.36 0-1.59 0.36-2.9 1.07-3.94 0.46-0.66 1.33-1.47 2.64-2.44l0.05-0.02c0.02-0.02 0.08-0.07 0.17-0.15 1.31-0.96 3.56-2.65 6.77-5.07l0.82-5.49c-1.26 0.85-2.58 1.28-3.96 1.3-1.21 0-2.26-0.31-3.14-0.93-1.91-1.4-2.87-4.1-2.87-8.1zM180 70.28c0.26-0.37 0.58-1.38 0.96-3.03 0.77-3.34 1.33-6.7 1.67-10.08-0.43-0.22-0.88-0.35-1.33-0.37-0.34 0-0.69 0.05-1.05 0.15-1.75 0.49-3.24 2.11-4.47 4.87-1.08 2.47-1.62 4.95-1.62 7.44 0 0.27 0.01 0.53 0.03 0.8 0.13 1.98 0.72 2.97 1.76 2.97 0.53 0 1.17-0.26 1.92-0.79 0.89-0.62 1.6-1.28 2.13-1.96zM177.68 91.01l0.48-3.45c-0.08 0.06-0.16 0.12-0.26 0.2-1.87 1.43-2.82 2.17-2.86 2.21-1.36 1.02-2.05 1.98-2.06 2.89 0 0.32 0.05 0.62 0.16 0.9 0.33 0.83 0.92 1.25 1.79 1.25 0.36 0 0.68-0.06 0.96-0.17 0.93-0.4 1.52-1.67 1.79-3.83z"
        transform="translate(-17.36085, 0)"
        hyvector:transform="scale(1)"
        hyvector:d="M41.5121 74.7872c0 0.0188666666667-0.0094333333333 0.0566333333333-0.0283 0.1133-0.2076666666667 1.4726-0.9628666666667 2.2089-2.2656 2.2089-0.4531333333333 0-0.8496333333333-0.1132666666667-1.1895-0.3398-0.7552-0.4908666666667-1.1328-1.293266666667-1.1328-2.4072l1.9258-14.8682h-12.999c-0.7363333333333 6.0228-1.4066 11.12046666667-2.0108 15.293-0.2643333333333 1.529266666667-1.0384 2.303333333333-2.3222 2.3222-0.4154 0-0.7835666666667-0.1038333333333-1.1045-0.3115-0.793-0.5097333333333-1.1895-1.331-1.1895-2.4638 0.1132666666667-0.9818 1.202925263188-9.195428226456 3.2852-24.6387 1.280541011069-9.497182336945 1.9258-14.27343333333 1.9258-14.3301 0-0.2832 0.1132666666667-0.6136 0.3398-0.9912 0.5097333333333-0.8118666666667 1.142233333333-1.2178 1.8975-1.2178 0.3586666666667 0 0.6986126976425 0.0942085208647 1.0195 0.2832 0.7365922913752 0.433827283423 1.1328 1.0762 1.1894 1.9258l-2.4355 19.5127c3.039733333333-0.0377333333333 7.382166666667-0.0566 13.0273-0.0566 0.1888-1.529333333333 0.5286666666667-4.144266666667 1.0196-7.8448 0.6608-4.889933333333 1.170566666667-8.760366666667 1.5293-11.6113 0.0377333333333-0.2832 0.1132333333333-0.5664 0.2265-0.8496 0.4154-0.9062666666667 1.113966666667-1.3594 2.0957-1.3594 0.3587333333333 0 0.7080333333333 0.0944 1.0479 0.2832 0.7552 0.4342666666667 1.161133333333 1.0762 1.2178 1.9258l-2.4639 19.4561h7.1367c0.4342666666667 0 0.8402 0.0755 1.2178 0.2265 0.944 0.4154 1.416 1.1234 1.416 2.124 0 0.3021333333333-0.0755333333333 0.6042333333333-0.2266 0.9063-0.3776 0.7740666666667-1.1139 1.246066666667-2.2089 1.416h-7.9014c-1.1706 9.100266666667-1.8503 14.19793333333-2.0391 15.293zM55.5873 68.4434c0-0.6419333333333 0.0377666666667-1.3216 0.1133-2.039 0.3964666666667-3.228533333333 1.416-6.098333333333 3.0586-8.6094 2.001266666667-3.077466666667 4.4085-4.6162 7.2217-4.6162 0.7552 0 1.482066666667 0.0944 2.1806 0.2832 2.4922 0.7174666666667 3.7383 2.473333333333 3.7383 5.2676 0 0.2076666666667-0.0094333333333 0.4247666666667-0.0283 0.6513-0.1888 2.529933333333-1.3216 4.653966666667-3.3984 6.3721-2.039066666667 1.6992-4.408533333333 2.5488-7.1084 2.5488-0.5098 0-1.010133333333-0.0472-1.501-0.1416-0.0378 0.2832-0.0567 0.6797-0.0567 1.1895 0 1.095066666667 0.1888333333333 1.944666666667 0.5665 2.5488 0.5097333333333 0.7740666666667 1.557566666667 1.2272 3.1435 1.3594 0.6986 0 1.387733333333-0.0755333333333 2.0674-0.2266 1.189466666667-0.2832 2.596033333333-0.9534333333333 4.2197-2.0107 1.057333333333-0.6986 1.8031-1.0479 2.2373-1.0479 0.2454666666667 0 0.5003666666667 0.0755333333333 0.7647 0.2266 0.6041333333333 0.3587333333333 0.9062 0.8779333333333 0.9062 1.5576 0 0.2265333333333-0.0472 0.4719666666667-0.1416 0.7363-0.5097333333333 1.227266666667-2.039033333333 2.3884-4.5879 3.4834-2.36 1.019533333333-4.4368 1.5293-6.2304 1.5293-0.6797333333333 0-1.312233333333-0.0566333333333-1.8975-0.1699-3.511733333333-0.7174666666667-5.2676-3.681666666667-5.2676-8.8926zM64.6781 57.6251c-1.718066666667 1.151666666667-3.068 3.341766666667-4.0498 6.5703 0.472 0.1132666666667 0.9251333333333 0.1699 1.3594 0.1699 1.567066666667 0 2.9359-0.4814333333333 4.1065-1.4443 1.302733333333-1.057333333333 1.9541-2.312866666667 1.9541-3.7666 0-1.4538-0.4625666666667-2.190133333333-1.3877-2.209-0.6608666666667 0.0188666666667-1.3217 0.2454333333333-1.9825 0.6797zM73.1459 74.1641l2.4072-18.1816c0.0378-0.321 0.085-0.6231 0.1416-0.9063 0.3398666666667-1.623666666667 1.0762-2.4355 2.209-2.4355 0.2076666666667 0 0.4153666666667 0.0188666666667 0.6231 0.0566 0.8684666666667 0.2077333333333 1.3027 1.029033333333 1.3027 2.4639 0 0.2076666666667-0.0188666666667 0.5664-0.0566 1.0762-0.0189333333333 0.3398-0.0284 0.6041-0.0284 0.7929 0.0378-0.0754666666667 0.085-0.1509666666667 0.1416-0.2265 1.397133333333-2.473333333333 3.389-3.71 5.9756-3.71 0.9251333333333 0 1.774766666667 0.2737666666667 2.5489 0.8213 1.151666666667 0.8496 1.7275 1.972966666667 1.7275 3.3701 0 0.2266-0.0094333333333 0.7647-0.0283 1.6143-0.0188666666667 1.9258-0.0283 3.4551-0.0283 4.5879 0 3.851533333333 0.1132666666667 6.117133333333 0.3398 6.7968 0.0566666666667 0.1510666666667 0.1133 0.3115666666667 0.1699 0.4815 0.5286666666667 1.434866666667 1.274433333333 2.1523 2.2373 2.1523 0.1699333333333 0 0.3587333333333-0.0188666666667 0.5664-0.0566 0.5664-0.1132666666667 1.378266666667-0.5569666666667 2.4356-1.3311 1.0384-0.7363333333333 1.869133333333-1.1045 2.4922-1.1045 0.2454 0 0.4814 0.0661 0.708 0.1983 0.5852666666667 0.3398666666667 0.8779 0.8968333333333 0.8779 1.6709-0.1132666666667 0.9251333333333-0.9062333333333 1.944666666667-2.3789 3.0586-1.737 1.170533333333-3.483433333333 1.7558-5.2393 1.7558-1.416 0-2.614866666667-0.3870333333333-3.5966-1.1611-2.0202-1.623666666667-3.0303-5.182566666667-3.0303-10.6767 0-0.3965333333333 0.0094333333333-1.038466666667 0.0283-1.9258 0.0378-0.9251333333333 0.0567-1.699233333333 0.0567-2.3223 0-2.0202-0.2265666666667-3.0586-0.6797-3.1152-0.0755333333333 0-0.1699333333333 0.0188666666667-0.2832 0.0566-1.0762 0.3964666666667-2.456263721231 2.538590766348-4.1348 6.4287-1.474245320343 3.416652595402-2.416666666667 6.2588-2.832 8.5244l-0.0567 0.8213c-0.0566 0.6797333333333-0.2454 1.3028-0.5664 1.8692-0.5475333333333 0.9062-1.2272 1.3593-2.039 1.3593-0.2266 0-0.4531666666667-0.0472-0.6797-0.1416-0.8874-0.4153333333333-1.3311-1.3027-1.3311-2.6621zM95.9154 68.3585c0-0.6419333333333 0.0377666666667-1.321633333333 0.1133-2.0391 0.3965333333333-3.2474 1.4158801925-6.126755319287 3.0586-8.6377 2.001106187791-3.058748616067 4.408566666667-4.5879 7.2217-4.5879 1.2272 0 2.303366666667 0.236 3.2285 0.708 0.3776-0.4531333333333 0.8873666666667-0.6891333333333 1.5293-0.708 1.246133333333 0.0188666666667 1.888066666667 0.8212666666667 1.9258 2.4072 0 0.0566666666667-1.0384 7.533233333333-3.1152 22.4297 4.172466666667-3.1152 6.815666666667-5.135366666667 7.9296-6.0605 0.6986-0.6042 1.4255-0.9157333333333 2.1807-0.9346 0.2643333333333 0 0.5190859509474 0.0851797562745 0.7647 0.2549 0.5471387643931 0.3780749708848 0.8212 0.8590333333333 0.8212 1.4443-0.0188666666667 0.8874-0.5380666666667 1.765333333333-1.5576 2.6338-1.888 1.585933333333-5.5602 4.465166666667-11.0166 8.6377l-1.3027 9.374c-0.321 2.1524-1.2367 3.795-2.7471 4.9278-1.2272 0.8873333333333-2.577133333333 1.331-4.0498 1.331-1.737-0.0188666666667-3.275733333333-0.6796666666667-4.6162-1.9824-1.283866666667-1.302733333333-1.9258-2.7565-1.9258-4.3613 0-1.585933333333 0.3587333333333-2.8981 1.0762-3.9365 0.4531333333333-0.6608666666667 1.331066666667-1.472733333333 2.6338-2.4356l0.0566-0.0283c0.0188666666667-0.0188666666667 0.0755-0.0660666666667 0.1699-0.1416 1.3028-0.9628666666667 3.559-2.652633333333 6.7686-5.0693l0.8213-5.4942c-1.265 0.8496-2.586633333333 1.283833333333-3.9649 1.3027-1.208333333333 0-2.256166666667-0.3115-3.1435-0.9345-1.906933333333-1.397133333333-2.8604-4.097-2.8604-8.0996zM105.9692 70.2842c0.2642666666667-0.3776 0.5838255922341-1.387983233136 0.9628-3.0302 0.7713365054975-3.342446656727 1.3311-6.7025 1.6709-10.0821-0.4342-0.2265333333333-0.8778666666667-0.3492333333333-1.331-0.3681-0.3398666666667 0-0.6891666666667 0.0472-1.0479 0.1416-1.755866666667 0.4908666666667-3.2474 2.114566666667-4.4746 4.8711-1.076133333333 2.473266666667-1.6142 4.956-1.6142 7.4482 0 0.2643333333333 0.0094333333333 0.5286666666667 0.0283 0.793 0.1321333333333 1.9824 0.7174 2.9736 1.7558 2.9736 0.5286666666667 0 1.170957403743-0.2638231492968 1.9258-0.793 0.8878207717811-0.6224002226816 1.595433333333-1.274366666667 2.1241-1.9541zM103.6469 91.0147l0.4814-3.4551c-0.0754666666667 0.0566666666667-0.1604 0.1227666666667-0.2548 0.1983-1.8692 1.434866666667-2.822666666667 2.1712-2.8604 2.209-1.3594 1.019533333333-2.048533333333 1.9824-2.0674 2.8886 0 0.321 0.0566333333333 0.6231 0.1699 0.9063 0.321 0.8307333333333 0.9157333333333 1.2461 1.7842 1.2461 0.3587333333333 0 0.6797-0.0566333333333 0.9629-0.1699 0.9251333333333-0.3965333333333 1.519866666667-1.670966666667 1.7842-3.8233zM118.7983 45.7589h0.2832c1.057266666667 0.0377333333333 2.0107 0.0566 2.8603 0.0566l1.2461-8.751c0.0755333333333-0.5852666666667 0.1699333333333-1.076133333333 0.2832-1.4726 0.3398666666667-1.246133333333 1.029-1.8692 2.0674-1.8692 0.2076666666667 0 0.4153333333333 0.0189 0.623 0.0567 0.8685333333333 0.2076666666667 1.3028 1.028933333333 1.3028 2.4638 0 0.4531333333333-0.3776 3.6439-1.1328 9.5723h2.9736c0.5097333333333 0 0.9534 0.1038333333333 1.331 0.3115 0.6608666666667 0.3964666666667 0.9913 0.9817666666667 0.9913 1.7559 0 0.3398-0.0849666666667 0.6607666666667-0.2549 0.9629-0.4342666666667 0.7174-1.142266666667 1.0761-2.124 1.0761h-3.5118c-1.472666666667 11.32813333333-2.209 17.68133333333-2.209 19.0596 0 0.8684666666667 0.1793666666667 1.680333333333 0.5381 2.4356 0.5286666666667 1.1328 1.227233333333 1.6992 2.0957 1.6992 0.2077333333333 0 0.4248666666667-0.0283333333333 0.6514-0.085 0.5098-0.1321333333333 1.2367-0.5663666666667 2.1807-1.3027 0.9251333333333-0.7363333333333 1.6992-1.1045 2.3222-1.1045 0.2643333333333 0 0.5192333333333 0.0566333333333 0.7647 0.1699 0.6796666666667 0.3398666666667 1.0195 0.8590666666667 1.0195 1.5576-0.0566 0.9818-0.7835 2.001333333333-2.1807 3.0586-1.6992 1.2272-3.502233333333 1.8408-5.4091 1.8408-1.869133333333-0.0188666666667-3.398433333333-0.8023666666667-4.5879-2.3505-1.208333333333-1.6426-1.8125-3.71-1.8125-6.2022 0-0.5475333333333 0.7457666666667-6.806333333333 2.2373-18.7764h-2.8887c-1.302733333333-0.1132666666667-1.9541-0.7929333333333-1.9541-2.039 0-0.3398666666667 0.0566333333333-0.6514 0.1699-0.9346 0.3398666666667-0.7929333333333 1.0479-1.1894 2.1241-1.1894zM137.3481 53.3204c0.6608 0.0188666666667 1.283833333333 0.0849333333333 1.8691 0.1982 2.907533333333 0.6230666666667 4.6917 2.8887 5.3525 6.7969 0.3587333333334-0.2076666666667 0.9537707039378-0.5942543284521 1.7842-1.1611 1.133215219705-0.7735253865298 1.991866666667-1.1612 2.5772-1.1612 0.2832 0 0.5571049348461 0.0847517809756 0.8213 0.2549 0.5855735175035 0.3771239672969 0.8779 0.8873666666667 0.8779 1.5293-0.0188666666667 0.6419333333333-0.4342333333333 1.349933333333-1.2461 2.124-1.151666666667 1.057333333333-2.6432 1.954166666667-4.4746 2.6905-0.0188666666667 2.945266666667-0.4624087461562 5.437500606248-1.3311 7.4765-1.415742638801 3.323042990763-3.738266666667 4.9844-6.9668 4.9844-1.151666666667 0-2.303333333333-0.3681666666667-3.455-1.1045-2.662133333333-1.755866666667-3.9932-4.9183-3.9932-9.4873 0-2.756533333333 0.4634804806433-5.267227068899 1.3877-7.5332 1.455172358989-3.567746738188 3.719366666667-5.437466666667 6.7969-5.6074zM140.8881 65.3282c-0.7363333333333-0.0188666666667-1.4349-0.0944-2.0957-0.2266-2.4922-0.5286-4.097033333333-1.8502-4.8145-3.9648-0.4908666666667 1.585933333333-0.7363 3.313466666667-0.7363 5.1826 0 0.9062666666667 0.0849666666666 1.7842 0.2549 2.6338 0.5286666666667 2.5866 1.680366666667 3.8799 3.4551 3.8799 0.5852666666667 0 1.1139-0.1793666666667 1.5859-0.5381 1.378266666667-1.057266666667 2.1618-3.379533333333 2.3506-6.9668zM140.4633 61.4766h0.3965c-0.2832-2.5866-0.9629-3.889333333333-2.0391-3.9082-0.0944 0-0.1888 0.0094333333333-0.2832 0.0283-0.4153333333333 0.1510666666667-0.623 0.4626-0.623 0.9346 0 0.4154 0.0660666666667 0.8213333333333 0.1982 1.2178 0.4154 1.151666666667 1.198933333333 1.7275 2.3506 1.7275zM147.1752 74.1641l2.4072-18.1816c0.0378-0.321 0.085-0.6231 0.1416-0.9063 0.3398666666667-1.623666666667 1.0762-2.4355 2.209-2.4355 0.2076666666667 0 0.4153666666666 0.0188666666667 0.6231 0.0566 0.8684666666667 0.2077333333333 1.3027 1.029033333333 1.3027 2.4639 0 0.2076666666667-0.0188666666667 0.5664-0.0566 1.0762-0.0189333333333 0.3398-0.0284 0.6041-0.0284 0.7929 0.0378-0.0754666666667 0.085-0.1509666666667 0.1416-0.2265 1.397133333333-2.473333333333 3.389-3.71 5.9756-3.71 0.9251333333333 0 1.774766666667 0.2737666666667 2.5489 0.8213 1.151666666667 0.8496 1.7275 1.972966666667 1.7275 3.3701 0 0.2266-0.0094333333333 0.7647-0.0283 1.6143-0.0188666666667 1.9258-0.0283 3.4551-0.0283 4.5879 0 3.851533333333 0.1132666666667 6.117133333333 0.3398 6.7968 0.0566666666667 0.1510666666667 0.1133 0.3115666666667 0.1699 0.4815 0.5286666666667 1.434866666667 1.274433333333 2.1523 2.2373 2.1523 0.1699333333333 0 0.3587333333333-0.0188666666667 0.5664-0.0566 0.5664-0.1132666666667 1.378266666667-0.5569666666667 2.4356-1.3311 1.0384-0.7363333333333 1.869133333333-1.1045 2.4922-1.1045 0.2454 0 0.4814 0.0661 0.708 0.1983 0.5852666666667 0.3398666666667 0.8779 0.8968333333333 0.8779 1.6709-0.1132666666667 0.9251333333333-0.9062333333333 1.944666666667-2.3789 3.0586-1.737 1.170533333333-3.483433333333 1.7558-5.2393 1.7558-1.416 0-2.614866666667-0.3870333333333-3.5966-1.1611-2.0202-1.623666666667-3.0303-5.182566666667-3.0303-10.6767 0-0.3965333333333 0.0094333333333-1.038466666667 0.0283-1.9258 0.0377333333333-0.9251333333333 0.0566-1.699233333333 0.0566-2.3223 0-2.0202-0.2265333333333-3.0586-0.6796-3.1152-0.0755333333333 0-0.1699333333333 0.0188666666667-0.2832 0.0566-1.0762 0.3964666666667-2.456263721231 2.538590766348-4.1348 6.4287-1.474245320343 3.416652595402-2.416666666667 6.2588-2.832 8.5244l-0.0567 0.8213c-0.0566 0.6797333333333-0.2454 1.3028-0.5664 1.8692-0.5475333333333 0.9062-1.2272 1.3593-2.039 1.3593-0.2266 0-0.4531666666666-0.0472-0.6797-0.1416-0.8874-0.4153333333333-1.3311-1.3027-1.3311-2.6621zM169.9447 68.3585c0-0.6419333333333 0.0377666666667-1.321633333333 0.1133-2.0391 0.3964666666667-3.2474 1.415836869281-6.126740051933 3.0586-8.6377 2.001134623824-3.058730012349 4.408566666667-4.5879 7.2217-4.5879 1.2272 0 2.303366666667 0.236 3.2285 0.708 0.3776-0.4531333333333 0.8873666666667-0.6891333333333 1.5293-0.708 1.246066666667 0.0188666666667 1.888 0.8212666666667 1.9258 2.4072 0 0.0566666666667-1.0384 7.533233333333-3.1152 22.4297 4.172466666667-3.1152 6.815666666667-5.135366666667 7.9296-6.0605 0.6986-0.6042 1.4255-0.9157333333333 2.1807-0.9346 0.2643333333333 0 0.5190859509474 0.0851797562745 0.7647 0.2549 0.5471387643931 0.3780749708848 0.8212 0.8590333333333 0.8212 1.4443-0.0188666666667 0.8874-0.5380666666667 1.765333333333-1.5576 2.6338-1.888 1.585933333333-5.5602 4.465166666667-11.0166 8.6377l-1.3027 9.374c-0.321 2.1524-1.2367 3.795-2.7471 4.9278-1.2272 0.8873333333333-2.577133333333 1.331-4.0498 1.331-1.737-0.0188666666667-3.275733333333-0.6796666666667-4.6162-1.9824-1.283866666667-1.302733333333-1.9258-2.7565-1.9258-4.3613 0-1.585933333333 0.3587333333333-2.8981 1.0762-3.9365 0.4531333333333-0.6608666666667 1.331066666667-1.472733333333 2.6338-2.4356l0.0566-0.0283c0.0188666666667-0.0188666666667 0.0755-0.0660666666667 0.1699-0.1416 1.302733333333-0.9628666666667 3.558933333333-2.652633333333 6.7686-5.0693l0.8213-5.4942c-1.265 0.8496-2.586633333333 1.283833333333-3.9649 1.3027-1.208333333333 0-2.256166666667-0.3115-3.1435-0.9345-1.906933333333-1.397133333333-2.8604-4.097-2.8604-8.0996zM179.9985 70.2842c0.2642666666667-0.3776 0.5838255922341-1.387983233136 0.9628-3.0302 0.7713365054975-3.342446656727 1.3311-6.7025 1.6709-10.0821-0.4342-0.2265333333333-0.8778666666667-0.3492333333333-1.331-0.3681-0.3398666666667 0-0.6891666666667 0.0472-1.0479 0.1416-1.755866666667 0.4908666666667-3.2474 2.114566666667-4.4746 4.8711-1.076133333333 2.473266666667-1.6142 4.956-1.6142 7.4482 0 0.2643333333333 0.0094333333334 0.5286666666667 0.0283 0.793 0.1321333333333 1.9824 0.7174 2.9736 1.7558 2.9736 0.5286666666667 0 1.170957403743-0.2638231492968 1.9258-0.793 0.8878207717811-0.6224002226816 1.595433333333-1.274366666667 2.1241-1.9541zM177.6762 91.0147l0.4814-3.4551c-0.0755333333333 0.0566666666667-0.1605 0.1227666666667-0.2549 0.1983-1.869133333333 1.434866666667-2.822566666667 2.1712-2.8603 2.209-1.3594 1.019533333333-2.048533333333 1.9824-2.0674 2.8886 0 0.321 0.0566333333333 0.6231 0.1699 0.9063 0.321 0.8307333333333 0.9157333333333 1.2461 1.7842 1.2461 0.3587333333334 0 0.6797-0.0566333333333 0.9629-0.1699 0.9251333333333-0.3965333333333 1.519866666667-1.670966666667 1.7842-3.8233z"
        hyvector:nodetypes="2cs8c2sc2s6cs5cs3cs2cscs2cscs4cscs2csc2cscsc3cscs3cscscs2cs2cs3cscscs2cs3cscsc2s6cs7cs8ccs4csc2s6csc5cscs3cs3cscs2cs5cs2csc3c3s3c2sc2s3cscsc4csc3cscs3cscscs2cs2cs3cscscs2cs3cscsc2s6cs7cs8ccs4csc2s6csc"
        fill="#67666d"
        />
    </g>
    <g>
      <path
        d="M329.42 42.33c0 0.92 0.21 1.75 0.65 2.49 1.19 2.06 3.76 3.08 7.7 3.08 0.3-1.6 0.45-3.02 0.45-4.24 0-0.85-0.12-1.66-0.36-2.41-0.68-1.98-2-2.97-3.94-2.97-0.94 0-1.8 0.22-2.58 0.68-1.28 0.77-1.92 1.89-1.92 3.37zM301.72 34.14c0.38 0 0.74 0.1 1.08 0.28 0.75 0.44 1.15 1.08 1.19 1.93-0.8 6.19-1.41 11.05-1.85 14.58-1.06 8.63-1.61 13.52-1.61 14.67 0 4.78 1.23 7.18 3.68 7.2 2.04 0 4.05-0.46 6.03-1.36-0.69-2.8-1.04-5.5-1.04-8.1 0-2.34 0.14-4.42 0.42-6.23 1-6.23 3.64-9.35 7.9-9.35 1.74 0 3.21 0.52 4.42 1.56 1.61 1.4 2.41 3.36 2.41 5.89 0 0.66-0.03 1.33-0.09 2.01-0.39 4.29-1.92 8.33-4.59 12.12-1.26 1.82-2.36 3.02-3.31 3.63 0.15 0.49 0.68 0.73 1.59 0.73 4.09-0.01 7.91-2.25 11.44-6.71 2.98-3.79 5.43-8.66 7.33-14.61-3.43-0.15-6.19-1.06-8.27-2.72-2.41-1.94-3.62-4.63-3.62-8.07 0.02-2.36 0.96-4.36 2.83-6 1.64-1.4 3.48-2.1 5.5-2.1 2.62 0 4.81 0.85 6.57 2.55 1.98 1.94 2.97 4.53 2.97 7.76 0 0.73-0.07 1.92-0.2 3.57 0.42-0.1 0.83-0.22 1.25-0.37 1.02-0.34 2.28-0.98 3.79-1.93 1.08-0.68 1.97-1.02 2.66-1.02 0.31 0 0.59 0.08 0.85 0.23 0.72 0.42 1.08 1.05 1.08 1.9-0.02 1.15-0.95 2.27-2.8 3.37-2.19 1.28-4.82 2.13-7.88 2.55-1.71 6.47-4.22 11.96-7.5 16.45-4.72 6.46-10.36 9.69-16.91 9.69-0.15 0-0.32-0.01-0.51-0.03-1.77-0.14-3.27-0.9-4.5-2.3-2.7 1.42-5.61 2.13-8.72 2.13-1.7 0-3.13-0.51-4.28-1.53-2.17-1.93-3.26-5.42-3.26-10.48 0-3.44 0.47-7.92 1.39-13.45 0.89-5.4 1.43-9.21 1.61-11.42-1.86 1.19-3.35 2.12-4.44 2.78-1.85 1.13-2.95 1.7-3.29 1.7-0.41 0-0.82-0.11-1.21-0.34-0.74-0.47-1.11-1.13-1.11-1.98 0.02-0.8 0.47-1.5 1.36-2.13 0.09-0.07 0.31-0.22 0.65-0.45 6.4-4.4 10.07-6.6 10.99-6.6zM314.24 68.49c0.6-0.47 1.23-1.15 1.89-2.04 2.21-3 3.32-6.49 3.32-10.47 0-0.17-0.01-0.34-0.03-0.51-0.09-1.55-0.81-2.33-2.15-2.33-1 0.02-1.83 0.95-2.49 2.78-0.72 2.13-1.08 4.74-1.08 7.82 0 1.15 0.18 2.73 0.54 4.75zM343.8 69.51c0-0.64 0.04-1.32 0.12-2.04 0.39-3.22 1.41-6.09 3.06-8.61 2-3.07 4.4-4.61 7.22-4.61 0.75 0 1.48 0.09 2.18 0.28 2.49 0.72 3.74 2.47 3.74 5.27 0 0.21-0.01 0.42-0.03 0.65-0.19 2.53-1.32 4.65-3.4 6.37-2.04 1.7-4.41 2.55-7.11 2.55-0.51 0-1.01-0.05-1.5-0.14-0.04 0.28-0.06 0.68-0.06 1.19 0 1.09 0.19 1.94 0.57 2.55 0.51 0.77 1.56 1.23 3.14 1.36 0.7 0 1.39-0.08 2.07-0.23 1.19-0.28 2.6-0.95 4.22-2.01 1.06-0.7 1.8-1.05 2.24-1.05 0.24 0 0.5 0.08 0.76 0.23 0.61 0.36 0.91 0.88 0.91 1.56 0 0.22-0.05 0.47-0.14 0.73-0.51 1.23-2.04 2.39-4.59 3.49-2.36 1.02-4.44 1.53-6.23 1.53-0.68 0-1.31-0.06-1.9-0.17-3.51-0.72-5.27-3.69-5.27-8.9zM352.89 58.69c-1.71 1.16-3.06 3.35-4.05 6.57 0.48 0.12 0.93 0.17 1.36 0.17 1.57 0 2.94-0.48 4.11-1.44 1.3-1.06 1.95-2.31 1.95-3.77 0-1.45-0.46-2.19-1.38-2.21-0.66 0.02-1.32 0.25-1.99 0.68zM361.36 75.23l2.41-18.18c0.04-0.32 0.08-0.62 0.14-0.9 0.34-1.63 1.08-2.44 2.21-2.44 0.21 0 0.42 0.02 0.62 0.06 0.87 0.2 1.31 1.03 1.31 2.46 0 0.21-0.02 0.57-0.06 1.08-0.02 0.34-0.03 0.6-0.03 0.79 0.04-0.08 0.09-0.15 0.14-0.23 1.4-2.47 3.39-3.71 5.98-3.71 0.92 0 1.77 0.28 2.55 0.82 1.15 0.85 1.72 1.98 1.72 3.37 0 0.23-0.01 0.77-0.02 1.62-0.02 1.92-0.03 3.45-0.03 4.59 0 3.85 0.11 6.11 0.34 6.79 0.05 0.15 0.11 0.32 0.17 0.49 0.53 1.43 1.27 2.15 2.23 2.15 0.17 0 0.36-0.02 0.57-0.06 0.57-0.11 1.38-0.56 2.44-1.33 1.03-0.74 1.87-1.1 2.49-1.1 0.24 0 0.48 0.06 0.71 0.19 0.58 0.34 0.87 0.9 0.87 1.67-0.11 0.93-0.9 1.95-2.37 3.06-1.74 1.17-3.49 1.76-5.24 1.76-1.42 0-2.62-0.39-3.6-1.16-2.02-1.63-3.03-5.18-3.03-10.68 0-0.4 0.01-1.04 0.03-1.92 0.04-0.93 0.05-1.7 0.05-2.33 0-2.02-0.22-3.06-0.68-3.11-0.07 0-0.17 0.02-0.28 0.05-1.07 0.4-2.45 2.54-4.13 6.43-1.48 3.42-2.42 6.26-2.84 8.53l-0.05 0.82c-0.06 0.68-0.25 1.3-0.57 1.87-0.55 0.9-1.23 1.36-2.04 1.36-0.22 0-0.45-0.05-0.68-0.14-0.88-0.42-1.33-1.31-1.33-2.67zM387.93 53.91c1.2 0.02 1.83 0.75 1.87 2.21 0 0.28-0.08 0.89-0.23 1.84-0.64 4.21-0.96 7.26-0.96 9.15 0 4.07 1.03 6.13 3.11 6.17 0.45-0.04 0.89-0.19 1.3-0.45 1.76-1.14 3.08-4.76 3.97-10.88 0.23-1.58 0.39-3.35 0.48-5.29 0.02-0.19 0.03-0.31 0.03-0.34 0.02-0.14 0.04-0.26 0.05-0.37 0.23-1.27 0.94-1.9 2.13-1.9 0.23 0 0.45 0.04 0.68 0.11 0.85 0.31 1.27 1.12 1.27 2.44 0 0.15-0.01 0.36-0.03 0.62v0.34l-2.86 20.87c4.55-3.41 7.24-5.47 8.05-6.17 0.73-0.6 1.46-0.91 2.18-0.91 0.24 0 0.5 0.08 0.76 0.23 0.55 0.36 0.82 0.84 0.82 1.44-0.02 0.89-0.53 1.77-1.55 2.64-1.91 1.62-5.59 4.52-11.05 8.69l-1.27 9.32c-0.32 2.23-1.34 3.92-3.06 5.07-1.21 0.79-2.45 1.19-3.71 1.19-1.74 0-3.28-0.65-4.62-1.96-1.3-1.3-1.95-2.76-1.95-4.39 0-1.71 0.42-3.11 1.27-4.19 0.44-0.54 1.31-1.31 2.64-2.29 0.17-0.19 2.43-1.9 6.79-5.13 0.25-1.7 0.5-3.35 0.77-4.95-1.1 0.51-2.36 0.76-3.8 0.76-0.68 0-1.32-0.08-1.92-0.25-3.31-1-4.96-4.64-4.96-10.91 0.02-3.11 0.35-6.14 0.99-9.09 0.53-2.28 1.47-3.49 2.81-3.62zM392.66 91.43l0.48-3.48c-1.95 1.47-3 2.27-3.15 2.41-1.36 1.05-2.04 2.02-2.06 2.89 0 0.32 0.05 0.63 0.17 0.93 0.32 0.83 0.92 1.25 1.81 1.25 0.34 0 0.64-0.06 0.9-0.17 0.95-0.36 1.56-1.64 1.85-3.83zM419.9 62.86c0.15-1.15 0.34-3.32 0.57-6.49 0.01-0.15 0.03-0.29 0.05-0.42 0.23-1.19 0.96-1.81 2.18-1.84 0.06 0 0.13 0.01 0.2 0.03 1.02 0.11 1.53 0.9 1.53 2.37 0 0.38-0.04 0.95-0.11 1.7-0.04 0.34-0.07 0.6-0.09 0.77-0.32 5.11-0.48 8.35-0.48 9.71 0 0.49 0.03 0.98 0.09 1.47 0.3 2.4 1.14 3.6 2.52 3.6 0.19 0 0.38-0.02 0.59-0.06 0.55-0.13 1.35-0.57 2.41-1.33 1.04-0.75 1.87-1.13 2.49-1.13 0.25 0 0.48 0.08 0.71 0.23 0.58 0.36 0.88 0.91 0.88 1.67 0 0.05-0.01 0.13-0.03 0.22-0.13 0.91-0.92 1.85-2.35 2.81-1.76 1.19-3.5 1.78-5.24 1.78-2.34-0.02-4.01-1.08-5.01-3.2-1.67 2.04-3.94 3.07-6.83 3.09-0.68 0-1.32-0.09-1.93-0.26-3.3-1-4.95-4.63-4.95-10.9 0-3.02 0.33-6.06 0.99-9.12 0.04-0.15 0.08-0.31 0.11-0.48 0.59-2.08 1.42-3.11 2.5-3.11 1.34 0.01 2.03 0.75 2.06 2.2 0 0.31-0.08 0.98-0.25 2.01-0.66 4.23-0.99 7.29-0.99 9.18 0 3.93 1 5.91 3 5.95 2.59-0.02 4.38-3.5 5.38-10.45zM428.76 75.23l2.41-18.18c0.04-0.32 0.09-0.62 0.14-0.9 0.34-1.63 1.08-2.44 2.21-2.44 0.21 0 0.42 0.02 0.62 0.06 0.87 0.2 1.31 1.03 1.31 2.46 0 0.21-0.02 0.57-0.06 1.08-0.02 0.34-0.03 0.6-0.03 0.79 0.04-0.08 0.09-0.15 0.14-0.23 1.4-2.47 3.39-3.71 5.98-3.71 0.92 0 1.77 0.28 2.55 0.82 1.15 0.85 1.73 1.98 1.73 3.37 0 0.23-0.01 0.77-0.03 1.62-0.02 1.92-0.03 3.45-0.03 4.59 0 3.85 0.11 6.11 0.34 6.79 0.06 0.15 0.11 0.32 0.17 0.49 0.53 1.43 1.27 2.15 2.24 2.15 0.17 0 0.35-0.02 0.56-0.06 0.57-0.11 1.38-0.56 2.44-1.33 1.04-0.74 1.87-1.1 2.49-1.1 0.25 0 0.48 0.06 0.71 0.19 0.58 0.34 0.88 0.9 0.88 1.67-0.12 0.93-0.91 1.95-2.38 3.06-1.74 1.17-3.49 1.76-5.24 1.76-1.42 0-2.62-0.39-3.6-1.16-2.02-1.63-3.03-5.18-3.03-10.68 0-0.4 0.01-1.04 0.03-1.92 0.04-0.93 0.06-1.7 0.06-2.33 0-2.02-0.23-3.06-0.68-3.11-0.08 0-0.17 0.02-0.29 0.05-1.07 0.4-2.45 2.54-4.13 6.43-1.48 3.42-2.42 6.26-2.83 8.53l-0.06 0.82c-0.06 0.68-0.25 1.3-0.57 1.87-0.54 0.9-1.22 1.36-2.04 1.36-0.22 0-0.45-0.05-0.68-0.14-0.88-0.42-1.33-1.31-1.33-2.67z"
        transform="translate(-17.36085, 0)"
        hyvector:transform="scale(1)"
        hyvector:d="M329.4171 42.3257c0 0.9250666666667 0.2171333333334 1.755766666667 0.6514 2.4921 1.1894 2.057933333333 3.757066666667 3.0869 7.703 3.0869 0.3020666666667-1.6048 0.4531-3.0208 0.4531-4.248 0-0.8496-0.1227-1.652-0.3681-2.4072-0.6797333333333-1.9824-1.9919-2.9736-3.9365-2.9736-0.944 0-1.803033333333 0.2265666666667-2.5771 0.6797-1.283866666667 0.7740666666667-1.9258 1.897433333333-1.9258 3.3701zM301.7202 34.1412c0.3776 0 0.7363 0.0944 1.0761 0.2832 0.7552 0.4342 1.1517 1.0761 1.1895 1.9257-0.793 6.192666666667-1.403564081763 11.05464136198-1.8408 14.5848-1.068779789677 8.629122286836-1.6143 13.51813333333-1.6143 14.6698 0 4.7766 1.2272 7.174366666667 3.6816 7.1933 2.039066666667 0 4.0498-0.4531333333333 6.0322-1.3594-0.6986000000001-2.7942-1.0479-5.494033333333-1.0479-8.0995 0-2.341133333333 0.1416-4.417933333333 0.4248-6.2304 1.000666666667-6.2304 3.634433333333-9.3456 7.9013-9.3456 1.736933333333 0 3.209566666667 0.5192 4.4179 1.5576 1.6048 1.397133333333 2.4072 3.360666666667 2.4072 5.8906 0 0.6608-0.0283 1.331033333333-0.0849 2.0107-0.3965333333333 4.285733333333-1.925833333333 8.326033333333-4.5879 12.1209-1.264933333333 1.812466666667-2.3694 3.0208-3.3134 3.625 0.151 0.4908666666667 0.6796333333333 0.7363 1.5859 0.7363 4.096933333333-0.0188666666667 7.9107-2.256133333333 11.4413-6.7118 2.983-3.794866666667 5.427966666667-8.6659 7.3349-14.6131-3.4362-0.1510666666667-6.1927-1.057333333333-8.2695-2.7188-2.4166-1.9446-3.6249-4.635-3.6249-8.0712 0.0188666666667-2.36 0.9628666666667-4.361266666667 2.832-6.0038 1.642533333333-1.397133333333 3.473866666667-2.0957 5.494-2.0957 2.624333333333 0 4.814433333333 0.8496 6.5703 2.5488 1.9824 1.944666666667 2.9736 4.531233333333 2.9736 7.7597 0 0.7363333333333-0.0661 1.925766666667-0.1983 3.5683 0.4154-0.0944 0.8307666666666-0.2171 1.2461-0.3681 1.019533333333-0.3398666666667 2.2845-0.9818 3.7949-1.9258 1.076133333333-0.6796666666667 1.9635-1.0195 2.6621-1.0195 0.3020666666667 0 0.5852666666667 0.0755 0.8496 0.2265 0.7174000000001 0.4154 1.0761 1.0479 1.0761 1.8975-0.0188666666667 1.151666666667-0.9534 2.275033333333-2.8036 3.3701-2.190133333333 1.2838-4.814466666667 2.1334-7.873 2.5488-1.718066666667 6.4758-4.219804150283 11.96033282351-7.5048 16.4539-4.720197554084 6.456788917219-10.35566666667 9.6854-16.907 9.6854-0.1510666666667 0-0.321-0.0094333333333-0.5098-0.0283-1.774733333333-0.1322-3.2757-0.8968333333333-4.5029-2.2939-2.6998 1.416-5.6073 2.124-8.7225 2.124-1.6992 0-3.125120960451-0.5092161074737-4.2763-1.5293-2.172120583644-1.924761608644-3.2568-5.4186-3.2568-10.4784 0-3.436133333333 0.4625333333333-7.920133333333 1.3876-13.452 0.8874-5.399666666667 1.4255-9.204 1.6143-11.413-1.869133333333 1.189466666667-3.351233333333 2.1146-4.4463 2.7754-1.8502 1.1328-2.945233333333 1.6992-3.2851 1.6992-0.4153333333333 0-0.8212333333333-0.1132666666667-1.2177-0.3398-0.7363333333333-0.472-1.1045-1.1328-1.1045-1.9824 0.0188666666667-0.793 0.4719666666667-1.501 1.3593-2.124 0.0944-0.0755333333333 0.3115333333333-0.2266 0.6514-0.4532 6.400333333333-4.399 10.06306666667-6.5985 10.9882-6.5985zM314.2376 68.4933c0.6041333333334-0.472 1.2366-1.151666666667 1.8974-2.039 2.209-3.001933333333 3.3135-6.494733333333 3.3135-10.4784 0-0.1699333333333-0.0094666666666-0.3398666666667-0.0284-0.5098-0.0944-1.548133333333-0.8118333333333-2.3222-2.1523-2.3222-1.0006 0.0188666666667-1.8313 0.944-2.4921 2.7754-0.7174666666667 2.1334-1.0762 4.738833333333-1.0762 7.8163 0 1.151666666667 0.1793666666667 2.737566666667 0.5381 4.7577zM343.8037 69.5128c0-0.6418666666667 0.0377333333333-1.321533333333 0.1132-2.039 0.3965333333333-3.228466666667 1.416066666667-6.098233333333 3.0586-8.6093 2.001266666667-3.0774 4.408466666667-4.6161 7.2216-4.6161 0.7551999999999 0 1.482066666667 0.0944 2.1806 0.2832 2.4922 0.7174 3.7383 2.473233333333 3.7383 5.2675 0 0.2076666666667-0.0094666666666 0.4248-0.0284 0.6514-0.1888 2.529866666667-1.3216 4.653866666667-3.3984 6.372-2.039 1.699133333333-4.408433333333 2.5487-7.1083 2.5487-0.5097333333333 0-1.010033333333-0.0472-1.5009-0.1416-0.0378 0.2832-0.0567 0.6797-0.0567 1.1895 0 1.095 0.1888 1.9446 0.5664 2.5488 0.5098 0.7740666666667 1.557633333333 1.227166666667 3.1435 1.3593 0.6986 0 1.387733333333-0.0755 2.0674-0.2265 1.189466666667-0.2832 2.596033333333-0.9534333333333 4.2197-2.0107 1.057266666667-0.6986 1.803033333333-1.0479 2.2373-1.0479 0.2454 0 0.5002666666667 0.0755333333333 0.7646 0.2266 0.6041333333333 0.3587333333333 0.9062000000002 0.8779333333333 0.9062 1.5576-0.0000000000001 0.2265333333333-0.0472 0.4719666666667-0.1416 0.7363-0.5097333333333 1.2272-2.039 2.388333333333-4.5878 3.4834-2.36 1.019466666667-4.4368 1.5292-6.2304 1.5292-0.6796666666667 0-1.312133333333-0.0566333333333-1.8974-0.1699-3.511666666667-0.7174-5.2675-3.681566666667-5.2675-8.8925zM352.8944 58.6946c-1.718133333333 1.151666666667-3.068066666667 3.341766666667-4.0498 6.5703 0.472 0.1132666666667 0.9251333333333 0.1699 1.3594 0.1699 1.567 0 2.9358-0.4814333333333 4.1064-1.4443 1.302666666667-1.057333333333 1.954-2.312866666667 1.954-3.7666 0-1.453733333333-0.4625333333333-2.190066666667-1.3876-2.209-0.6607999999999 0.0189333333333-1.3216 0.2455-1.9824 0.6797zM361.362 75.2335l2.4072-18.1814c0.0378-0.321 0.085-0.6231 0.1416-0.9063 0.3398666666666-1.623666666667 1.0762-2.4355 2.209-2.4355 0.2076666666667 0 0.4153333333333 0.0188666666667 0.623 0.0566 0.8685333333333 0.2077333333333 1.3028 1.029033333333 1.3028 2.4639 0 0.2076666666667-0.0189 0.5663666666667-0.0567 1.0761-0.0188666666667 0.3398666666667-0.0282999999999 0.6042-0.0283 0.793 0.0377333333333-0.0755333333333 0.0849333333334-0.1510666666667 0.1416-0.2266 1.397133333333-2.473266666667 3.388966666667-3.7099 5.9755-3.7099 0.9251333333333 0 1.774733333333 0.2737666666667 2.5488 0.8213 1.151666666667 0.8496 1.7275 1.972966666667 1.7275 3.3701 0 0.2265333333333-0.0094333333333 0.7646-0.0283 1.6142-0.0188666666667 1.9258-0.0283 3.4551-0.0283 4.5879 0 3.851466666667 0.1132666666667 6.117033333333 0.3398 6.7967 0.0566666666667 0.1510666666667 0.1133333333333 0.3115666666667 0.17 0.4815 0.5286 1.434866666667 1.274333333333 2.1523 2.2372 2.1523 0.1699333333333 0 0.3587333333333-0.0188666666667 0.5664-0.0566 0.5664-0.1133333333333 1.378266666667-0.5570333333333 2.4356-1.3311 1.0384-0.7363333333333 1.8691-1.1045 2.4921-1.1045 0.2454666666667 0 0.4814666666667 0.0661 0.708 0.1983 0.5852666666667 0.3398 0.8779 0.8967666666667 0.8779 1.6709-0.1132666666666 0.9250666666667-0.9062 1.944566666667-2.3788 3.0585-1.737 1.1706-3.4834 1.7559-5.2392 1.7559-1.416 0-2.6149-0.3870666666667-3.5967-1.1612-2.020133333333-1.623666666667-3.0302-5.182533333333-3.0302-10.6766 0-0.3964666666667 0.0094333333333-1.038366666667 0.0283-1.9257 0.0377333333333-0.9251333333333 0.0566-1.699233333333 0.0566-2.3223 0-2.020133333333-0.2265333333333-3.058533333333-0.6796-3.1152-0.0755333333333 0-0.1699333333333 0.0189-0.2832 0.0567-1.0762 0.3964666666667-2.456294039909 2.538544337481-4.1348 6.4286-1.47420527844 3.416574458157-2.4166 6.2587-2.832 8.5243l-0.0566 0.8213c-0.0566666666667 0.6796666666667-0.2454666666666 1.3027-0.5664 1.8691-0.5475333333333 0.9062666666667-1.2272 1.3594-2.039 1.3594-0.2266 0-0.4531666666667-0.0472-0.6797-0.1416-0.8874-0.4154-1.3311-1.302766666667-1.3311-2.6621zM387.9262 53.9085c1.208333333333 0.0189333333333 1.831366666667 0.7552666666667 1.8691 2.209 0 0.2832-0.0755333333333 0.8968-0.2266 1.8408-0.6418666666667 4.210266666667-0.9628 7.2594-0.9628 9.1474 0 4.078066666667 1.0384 6.135966666667 3.1152 6.1737 0.4530666666667-0.0377333333333 0.8873-0.1887666666667 1.3027-0.4531 1.7558-1.1328 3.0774-4.757766666667 3.9648-10.8749 0.2265333333334-1.585933333333 0.387-3.3512 0.4814-5.2958 0.0188666666667-0.1888 0.0283-0.3021 0.0283-0.3399 0.0189333333333-0.1321333333333 0.0378333333333-0.2548333333333 0.0567-0.3681 0.2265333333334-1.265 0.9345333333334-1.8975 2.124-1.8975 0.2265333333334 0 0.4531 0.0377666666667 0.6797 0.1133 0.8496 0.3020666666667 1.2744 1.1139 1.2744 2.4355 0 0.1510666666667-0.0094666666666 0.3587666666667-0.0284 0.6231v0.3398l-2.8603 20.8718c4.550066666667-3.417266666667 7.231033333333-5.475166666667 8.0429-6.1737 0.7363333333333-0.6042 1.4632-0.9063 2.1806-0.9063 0.2454666666667 0 0.5003666666667 0.0755333333333 0.7647 0.2266 0.5475333333333 0.3587333333333 0.8213 0.8401666666667 0.8213 1.4443-0.0189333333333 0.8874-0.5380253716354 1.765460082254-1.5576 2.6338-1.90673146099 1.623903728024-5.588533333333 4.521733333333-11.0448 8.6942l-1.2744 9.3173c-0.321 2.227866666667-1.340533333333 3.917633333333-3.0586 5.0693-1.208333333333 0.7929333333334-2.444966666667 1.1894-3.7099 1.1894-1.736933333333 0-3.275666666667-0.6513666666667-4.6162-1.9541-1.302666666667-1.302666666667-1.954-2.765866666667-1.954-4.3896 0-1.718066666667 0.4248-3.115166666667 1.2744-4.1913 0.4342-0.5475333333333 1.3121-1.312166666667 2.6337-2.2939 0.1699333333334-0.1888 2.435533333333-1.897466666667 6.7968-5.126 0.2454666666667-1.6992 0.5003333333333-3.3512 0.7646-4.956-1.095 0.5098-2.359933333333 0.7647-3.7948 0.7647-0.6797333333333 0-1.321666666667-0.0849666666667-1.9258-0.2549-3.304-1.000666666667-4.956-4.635066666667-4.956-10.9032 0.0188666666667-3.1152 0.3492666666667-6.145433333333 0.9912-9.0907 0.5286666666667-2.284466666667 1.463233333333-3.4928 2.8037-3.625zM392.6556 91.4325l0.4815-3.4833c-1.944666666667 1.4726-2.992533333333 2.275-3.1436 2.4072-1.359333333333 1.057266666667-2.048433333333 2.020133333333-2.0673 2.8886 0.0000000000001 0.3209333333333 0.0566333333333 0.6324666666667 0.1699 0.9346 0.321 0.8306666666667 0.9251666666667 1.246 1.8125 1.246 0.3398 0 0.6418666666667-0.0566333333333 0.9062-0.1699 0.944-0.3587333333333 1.5576-1.633133333333 1.8408-3.8232zM419.8995 62.8577c0.151-1.151733333333 0.3398-3.3135 0.5664-6.4853 0.0188666666667-0.1510666666667 0.0377333333333-0.2926666666667 0.0566-0.4248 0.2265333333334-1.189466666667 0.9534-1.803066666667 2.1806-1.8408 0.0566666666666 0 0.1227666666666 0.0094333333333 0.1983 0.0283 1.019533333333 0.1132666666667 1.5293 0.9062333333333 1.5293 2.3789 0.0000000000001 0.3776-0.0377666666666 0.944-0.1133 1.6992-0.0378 0.3398-0.0661333333333 0.5946666666667-0.085 0.7646-0.3209333333334 5.116466666667-0.4814 8.3544-0.4814 9.7138 0 0.4908666666667 0.0282999999999 0.9817333333333 0.0849 1.4726 0.3021333333333 2.397733333333 1.1423 3.5966 2.5205 3.5966 0.1888 0 0.3870333333333-0.0188666666667 0.5947-0.0566 0.5475333333333-0.1321333333333 1.349933333333-0.5758 2.4072-1.331 1.0384-0.7552 1.869133333333-1.1328 2.4922-1.1328 0.2454 0 0.4814000000001 0.0755 0.708 0.2265 0.5852666666667 0.3587333333333 0.8779 0.9157 0.8779 1.6709 0 0.0566666666667-0.0094333333334 0.1322-0.0283 0.2266-0.1322 0.9062-0.9157333333333 1.840733333333-2.3506 2.8036-1.7558 1.189466666667-3.5022 1.7842-5.2392 1.7842-2.341066666667-0.0188666666667-4.011933333333-1.0856-5.0126-3.2002-1.661466666667 2.039066666667-3.9365 3.068033333333-6.8251 3.0869-0.6796666666667 0-1.3216-0.0849666666667-1.9258-0.2549-3.304-1.0006-4.956-4.634966666667-4.956-10.9031-0.0000000000001-3.0208 0.3304-6.0605 0.9912-9.1191 0.0377999999999-0.151 0.0755666666666-0.3114666666667 0.1133-0.4814 0.5852666666667-2.0768 1.416-3.1152 2.4922-3.1152 1.340466666667 0.0188666666667 2.029566666667 0.7551666666667 2.0673 2.2089 0.0000000000001 0.3021333333333-0.0849666666667 0.9724-0.2549 2.0108-0.6607999999999 4.229066666667-0.9912 7.2876-0.9912 9.1756 0 3.927066666667 1.000666666667 5.909466666667 3.002 5.9472 2.586533333333-0.0188666666667 4.380133333333-3.5022 5.3808-10.45zM428.7636 75.2335l2.4072-18.1814c0.0377333333333-0.321 0.0849333333334-0.6231 0.1416-0.9063 0.3398666666667-1.623666666667 1.0762-2.4355 2.209-2.4355 0.2076666666666 0 0.4153333333333 0.0188666666667 0.623 0.0566 0.8684666666667 0.2077333333333 1.3027 1.029033333333 1.3027 2.4639 0.0000000000001 0.2076666666667-0.0188666666667 0.5663666666667-0.0566 1.0761-0.0188666666666 0.3398666666667-0.0283 0.6042-0.0283 0.793 0.0377333333333-0.0755333333333 0.0849333333333-0.1510666666667 0.1416-0.2266 1.397066666667-2.473266666667 3.3889-3.7099 5.9755-3.7099 0.9251333333333 0 1.774733333333 0.2737666666667 2.5488 0.8213 1.151666666667 0.8496 1.7275 1.972966666667 1.7275 3.3701 0 0.2265333333333-0.0094333333334 0.7646-0.0283 1.6142-0.0188666666666 1.9258-0.0283 3.4551-0.0283 4.5879 0 3.851466666667 0.1132666666666 6.117033333333 0.3398 6.7967 0.0566666666666 0.1510666666667 0.1133 0.3115666666667 0.1699 0.4815 0.5286666666667 1.434866666667 1.274433333333 2.1523 2.2373 2.1523 0.1699333333333 0 0.3587333333334-0.0188666666667 0.5664-0.0566 0.5664-0.1133333333333 1.378233333333-0.5570333333333 2.4355-1.3311 1.0384-0.7363333333333 1.869133333333-1.1045 2.4922-1.1045 0.2454 0 0.4814000000001 0.0661 0.708 0.1983 0.5852666666667 0.3398 0.8779 0.8967666666667 0.8779 1.6709-0.1132666666667 0.9250666666667-0.9062333333333 1.944566666667-2.3789 3.0585-1.736933333333 1.1706-3.483333333333 1.7559-5.2392 1.7559-1.416 0-2.614866666667-0.3870666666667-3.5966-1.1612-2.0202-1.623666666667-3.030300000001-5.182533333333-3.0303-10.6766 0.0000000000001-0.3964666666667 0.0094666666667-1.038366666667 0.0284-1.9257 0.0377333333333-0.9251333333333 0.0566-1.699233333333 0.0566-2.3223 0-2.020133333333-0.2265666666667-3.058533333333-0.6797-3.1152-0.0755333333333 0-0.1699333333333 0.0189-0.2832 0.0567-1.076133333333 0.3964666666667-2.456162037916 2.538558146061-4.1347 6.4286-1.474243838155 3.416586555012-2.416666666667 6.2587-2.832 8.5243l-0.0566 0.8213c-0.0566666666667 0.6796666666667-0.2454666666666 1.3027-0.5664 1.8691-0.5475333333334 0.9062666666667-1.227233333333 1.3594-2.0391 1.3594-0.2265333333334 0-0.4531000000001-0.0472-0.6797-0.1416-0.8873333333333-0.4154-1.331-1.302766666667-1.331-2.6621z"
        hyvector:nodetypes="s2cscscs2c2s2cscscs9cscs3cs4c2s2c3s3cs4c2cs3css2cscs2cscs4cscs2csc2cscsc3cscs3cscscs2cs2cs3cscscs2cs3csc3cs6cscs4cs2cs3cscs4cs3c5csc5cs2cscs2cscs6cs5csc3cscs3cscscs2cs2cs3cscscs2cs3csc"
        fill="#67666d"
        />
    </g>
    <path
      stroke-width="4.3"
      stroke-linecap="round"
      stroke-linejoin="round"
      d="M207.73 98.18c0 0 14.79-12.28 22.74-17.72 4.28-2.92 8.57-5.83 13.06-8.43 5.86-3.4 11.82-6.69 18.18-9.06 4.83-1.81 9.1-3.74 13.85-5.77 5.07-2.18 8.89-4.65 12.99-8.74 3.41-3.41 4.39-3.18 6.69-9.6 0.68-1.92-0.21-5.54-1.83-7.03-2.59-2.38-6.35-2.94-9.74-2.71-5.58 0.39-8.71 3.37-11.73 7.83-1.42 2.1-0.65 6.6 0.27 7.53 1.11 1.14 2.78-0.79 4.33-4.12 1.89-4.05-0.58-8.27-3.92-10.75-3.37-2.51-7.9-2.26-11.52-0.58-3.91 1.8-5.93 4.4-6.14 7.7-0.41 6.48 1.38 7.9 3.87 10.42 3.68 3.73 6.43 5.2 9.79 7.05 5.25 2.89 9.62 4.82 15.49 5.82 6.31 1.08 10.66 1.76 17.03 1.15 4.43-0.42 8.88-0.96 13.09-2.44 4.68-1.66 8.66-4.7 12.89-7.24 3.51-2.11 10.38-6.59 10.38-6.59"
      transform="translate(-53.36085, -8.35649746)"
      hyvector:transform="translate(-36, -8.35649746)"
      hyvector:d="M207.7335749391 98.17939486344c-0.0000000000415 0.0000000000017 14.78315977647-12.27617291284 22.74096445532-17.71863291634 4.27622157138-2.924571010167 8.569934988831-5.830922306975 13.0539346084-8.429886392688 5.86555986411-3.399728082691 11.82281696131-6.687433206898 18.18516980394-9.063547479461 4.830550994143-1.804040336245 9.094626488164-3.733628183543 13.84535375669-5.771088708127 5.070004964636-2.174390233539 8.889831981591-4.643597162895 12.98908721906-8.734020708921 3.415474102953-3.408115592281 4.39447261651-3.182705278785 6.689017221765-9.598117530052 0.6868832224643-1.920485237243-0.2053976076428-5.545514045412-1.829075698565-7.038966460318-2.583465987511-2.376261365752-6.343624793496-2.939363215904-9.736928872931-2.70253571815-5.577269096028 0.3892520839259-8.715145921437 3.366900618419-11.73212764895 7.825384286035-1.422103196394 2.101578480561-0.6470431879206 6.597705423973 0.2681186282977 7.533916593255 1.114536255981 1.14017135869 2.778698806935-0.7959054378648 4.33112750008-4.122463643968 1.888510270602-4.046716841632-0.5785798664368-8.271872964574-3.915535106463-10.75029908927-3.372215049614-2.504614319307-7.897894247203-2.257347900193-11.52721146042-0.5807484501956-3.903901729018 1.803446518226-5.923357758516 4.399826056492-6.133000865987 7.696674862564-0.4124030967198 6.485453652358 1.377875145456 7.906831364033 3.86317365633 10.42273822067 3.684998842965 3.730382412879 6.430358667528 5.200309271696 9.790837287804 7.050344519639 5.253962816989 2.892450005236 9.620241697572 4.81842186998 15.49220712904 5.820609713272 6.313208835453 1.077496320593 10.66168306507 1.761521789405 17.03390536652 1.15212357428 4.427010445032-0.4233707074106 8.878654628378-0.9570300875381 13.0887795154-2.444305699288 4.679762497807-1.653180563177 8.66266035433-4.699129002849 12.8861628339-7.237416241608 3.514075790209-2.11192813961 10.38249173747-6.590849633719 10.38249173747-6.590849633719"
      hyvector:nodetypes="c20sc"
      fill="none"
      stroke="#67666d"
      />
  </g>
</svg>