<svg version="1.1" id="Layer_1" xmlns="http://www.w3.org/2000/svg" xmlns:xlink="http://www.w3.org/1999/xlink" x="0px" y="0px"
	 width="100%" viewBox="0 0 336 304" enable-background="new 0 0 336 304" xml:space="preserve">
<path fill="#000000" opacity="1.000000" stroke="none" 
	d="
M236.367676,239.507904 
	C208.066299,253.290771 178.983215,248.363983 157.277420,226.205475 
	C154.784348,223.660400 152.583191,222.560944 148.671844,223.054245 
	C106.528595,228.369476 70.346313,194.043884 73.854866,151.862198 
	C75.461449,132.547028 84.148331,116.600182 99.648880,104.622643 
	C100.965385,103.605354 102.299797,102.610550 103.594566,101.566452 
	C103.829224,101.377220 103.911194,100.998642 104.190994,100.464287 
	C102.591507,97.259346 99.671288,94.977615 97.229279,92.341118 
	C95.497360,90.471260 95.196274,88.796928 96.425377,86.533691 
	C101.590965,77.021957 106.695328,67.476082 111.714638,57.886448 
	C112.952393,55.521660 114.607155,54.598534 117.269447,54.614376 
	C132.428436,54.704586 147.588455,54.708321 162.747482,54.624538 
	C165.372787,54.610027 167.092957,55.420635 168.379028,57.773991 
	C173.329849,66.833351 178.343460,75.860237 183.482956,84.813530 
	C185.021683,87.494102 184.452087,89.376213 182.432999,91.433250 
	C179.779343,94.136795 177.356781,97.067192 174.394211,100.394989 
	C180.819366,104.629097 186.280914,109.186813 191.021362,114.551468 
	C192.330276,116.032745 194.005753,115.465073 195.681946,115.183075 
	C222.766846,110.626396 251.566025,125.229507 264.193756,149.876526 
	C281.054596,182.785736 269.259216,221.160706 236.367676,239.507904 
M211.103180,228.686691 
	C231.099594,225.770020 244.984619,214.799026 251.248581,195.755081 
	C257.516235,176.699875 252.955811,159.467010 238.377975,145.501480 
	C228.499557,136.037994 216.434708,131.995270 202.070328,132.572830 
	C212.833206,168.135788 202.269714,195.418060 172.859085,215.712326 
	C181.847488,225.332993 193.931259,229.457123 211.103180,228.686691 
M139.705856,171.584061 
	C143.057510,150.229004 154.372131,134.140778 172.592484,122.835098 
	C162.402100,109.810410 136.753983,104.160568 117.216599,114.635681 
	C96.679878,125.646584 85.359177,151.626465 95.409035,175.935211 
	C103.854729,196.363785 126.601250,208.245499 143.260437,204.771088 
	C140.134338,194.224380 137.848633,183.549667 139.705856,171.584061 
M186.408768,170.815994 
	C188.970230,161.460724 188.911972,152.116226 186.126251,142.830704 
	C184.598053,137.736832 183.623093,137.357407 179.220810,140.238632 
	C166.461761,148.589203 159.241211,160.545135 157.496765,175.545303 
	C156.521439,183.931915 157.309250,192.308441 161.697327,200.386749 
	C174.003082,193.810364 181.990952,184.336731 186.408768,170.815994 
M134.019135,91.224892 
	C140.524429,90.253952 146.951874,91.018471 153.293121,92.382774 
	C157.886002,93.370918 159.189438,89.463509 161.599747,87.252754 
	C163.592545,85.424965 161.751999,83.711159 161.146500,81.875717 
	C158.489243,73.820839 153.074127,70.925705 144.818848,72.277466 
	C141.745178,72.780769 138.435715,72.824142 135.379929,72.270546 
	C126.661652,70.691086 121.667549,74.470024 119.052826,82.488846 
	C118.358444,84.618362 116.461891,86.445724 118.751694,88.778244 
	C120.992714,91.061081 122.936493,93.522469 126.770775,92.408241 
	C128.817413,91.813492 131.011429,91.725914 134.019135,91.224892 
z"/>
</svg>