<svg
    xmlns="http://www.w3.org/2000/svg"
    xmlns:hyvector="https://www.hyvector.com/dtd"
    viewBox="0 0 480 480"
    >
  <ellipse
    cx="238.86"
    cy="243.73"
    rx="228.32"
    ry="218.61"
    hyvector:transform="translate(10.53737274, 25.12190893) scale(4.56643544, 4.37225858)"
    fill="#f0e9e5"
    />
  <path
    d="M373.26 633.86c23.9 1.9 38.18 13.32 61.33 19.19 25.87 6.57 51.21 17.49 78.26 16.8 25.47-0.64 50.36-7.27 73.17-18.53 28.31-13.98 50.52-36.92 70.05-61.36 18.53-23.16 37.88-47.35 42.88-77.26 2.59-15.46 4.42-31.53-0.54-46.66-7.28-22.21-17.69-35.72-42.64-38.68-19.64-2.34-37.56 3.81-53.19 13.46-28.27 17.46-47.42 24.43-58.35 68.19-11.14 44.61 5.65 47.55 15.66 43.44 11.69-4.81 21.3-11.14 28.03-48.24 4.26-23.5-25.1-62.4-58.34-78.91-28.91-14.35-54.87-9.8-81.61 8.86-16.89 11.78-23.97 40.53-19.38 60.44 6.43 27.88 19.65 49.63 31.53 66.74 15.48 22.31 32.15 38.43 54.07 53.35 27.8 18.93 28.38 16 58.77 29.43 27.68 12.23 60.59 17.95 91.37 22.05 38.72 5.15 71.67-18.03 107.35-29.58"
    stroke-width="24"
    stroke-linecap="round"
    stroke-linejoin="round"
    transform="translate(-332.93196585, -294.68127747)"
    hyvector:transform="translate(-332.93196585, -294.68127747) scale(2.04926863, 2.04926863)"
    hyvector:d="M182.145418468 309.3098770463c11.65796458613 0.9300554824378 18.62732246786 6.49836062331 29.92302032391 9.365007510629 12.62514958885 3.204038053431 24.99163929026 8.532292563648 38.19240749413 8.199667265011 12.42724827009-0.313134592112 24.57250508798-3.54969126212 35.70423259993-9.045215876247 13.81577158832-6.820586718936 24.65128526192-18.01538376275 34.18547649566-29.93888362968 9.040142407255-11.30564031572 18.48044254276-23.10867827458 20.92328888313-37.70500526919 1.262718031874-7.544905707144 2.157212713116-15.38528940293-0.263897337261-22.76787741401-3.554495518655-10.83857216542-8.635172837402-17.43061328565-20.8101900243-18.87673810434-9.579753844425-1.137864495689-18.32835570218 1.862058370044-25.95349527099 6.570505131894-13.79691629803 8.519456631676-23.13835676239 11.91917200675-28.47299643471 33.27531419246-5.437781408932 21.76904909742 2.755311123364 23.20222658874 7.640056485271 21.19562299053 5.705608868124-2.343805958436 10.39634503795-5.435087048422 13.67757598002-23.53789165784 2.078968419576-11.46982938823-12.24583682857-30.45013430221-28.46539090137-38.50528340666-14.10664098585-7.00580891398-26.7775188989-4.784821962481-39.8269552872 4.321992105199-8.239796180634 5.750309020237-11.69437044456 19.77971762922-9.454526032001 29.49187385432 3.138026845059 13.60675178459 9.587467174346 24.2198677024 15.38413763054 32.56977851241 7.556399749975 10.88474227297 15.68964248106 18.75439143492 26.38434806653 26.03428017015 13.56525819286 9.233874604543 13.85159864361 7.80401140771 28.67863920274 14.35816941118 13.50696711156 5.970631579771 29.56567467098 8.761199680844 44.58787867785 10.76054856847 18.89701277062 2.515058472449 34.97459428484-8.799218993135 52.38643903592-14.43500239662"
    hyvector:nodetypes="20s"
    fill="none"
    stroke="#be4c34"
    />
</svg>